<svg xmlns="http://www.w3.org/2000/svg" width="200" height="200" viewBox="-403 207 200 200"><path d="M-207.3 300.2c-.3-4.5-1-9-2-13.4-4-18.5-13-34.4-26.4-47.5-17.5-17-38.5-26-62.8-27.3h-9c-13.6.7-26.6 4-38.6 10-22.2 11.3-39.6 31-47.6 54.4-2 6-3.5 12-4.3 18.4l-.6 7.7c0 .2 0 .5-.2.7v7.6l.3 1.8c1.5 23.6 10.6 44 27 60.8 10.8 11 23.7 19 38.5 24 5.6 2 11.4 3.2 17.3 4 3 .4 5.8.7 8.8.8h8.1l8.4-.7c6-.8 12-2 18-4 18.6-6.4 34-17.3 46-33 11.7-15 18.2-32.4 19.4-51.5.2-4.3.2-8.5 0-12.8zm-3.6 6.7c-.3 24.5-8.7 45.6-25.6 63.2-12 12.5-26.6 21-43.5 25.2-4.8 1.2-9.5 2-14.3 2.4-4.6.4-9.3.5-14 .2-12.2-.7-24-3.7-35-9-9-4.6-17.4-10.4-24.6-17.6-12.5-12.5-20.8-27.3-24.7-44.6-1.8-7.8-2.5-15.7-2-23.7.7-16.3 5.5-31.5 14.6-45.2 11.7-17.8 27.7-30 47.8-37 5.8-2 11.8-3.3 18-4 5.5-.8 11-1 16.8-.7 22.6 1.6 42.2 10 58.6 25.8 10.8 10.3 18.6 22.7 23.3 37 2 5.7 3.2 11.5 4 17.5 0 1 0 2.3.2 3.4l.4 7.2z"/><path d="M-213.7 292c-1.5-9-4.3-17.7-8.6-25.8-9.3-17.6-23-31-41-39.7-11-5.5-22.6-8.4-34.8-9-4.8-.2-9.6 0-14.3.4-4.5.4-9 1-13.4 2.3-16.5 4.4-30.6 12.7-42.4 25-15.2 15.8-23.4 34.5-25 56.3-.4 7.2 0 14.4 1.4 21.5 1.8 10.2 5.3 19.6 10.4 28.4 9.2 16 22 28 38.6 36 11 5.5 22.8 8.5 35 9 4.8.3 9.6.2 14.3-.3 4.5-.4 9-1 13.3-2.3 16.2-4.3 30.2-12.4 42-24.4 16.7-17.3 25-38 25.4-62.2 0-5.3-.3-9.3-1-15zm-.4 22.3c-2 21.2-10.5 39.4-25.4 54.6-10 10-21.7 17.2-35 21.7-6 2-12.2 3.3-18.4 4-5.2.6-10.4.8-15.6.4-19.3-1.2-36.5-8-51.4-20.2-9.6-8-17-17.4-22.7-28.4-3.8-7.6-6.5-15.5-8-24-1-5-1.4-10.2-1.4-15.4.4-23.3 8.4-43.6 24.8-60.6 12-12.6 26.5-21 43.4-25 4.2-1 8.4-1.8 12.7-2.2 4.6-.4 9.3-.5 14-.2 17.3 1 33 6.7 47 17 15.2 11 26 25.7 32 43.7 1.8 5.8 3 11.7 3.7 17.7.6 5.7.7 11.3.2 17z"/><path d="M-309.4 383.4h-.7l-3.4-.6c-1 0-1.4-.7-1.6-1.6-.3-1.2-1.3-2-2.5-2 0 1.3 1 2 1.6 3-.3-.2-.7-.2-1-.3l-5-1.3c-.7-.2-1-.5-1.3-1 0-.7-.4-1.2-.5-1.8 0-.6-.4-1-1-1-.4-.2-.8 0-.8.4v1l.5 1.5c-.4 0-.7 0-1-.2l-2.4-.8c-.5 0-.7-.4-1-1-.2-.6-.4-1.2-.8-1.8-.4-.7-.5-1.3-.4-2l.2-1.6c0-1.6-.5-3-1.5-4.3-.5-.7-2.4-1.2-3-1-.3 0-.4.2-.5.3 0 0 0 .3.2.4.8.4 1.2 1 1.6 1.8.5.8 1 1.6.7 2.5 0 1-.5 1.6-.3 2.5.2.8.7 1.6 1.2 2.2 0 0 0 .3.2.5h-.5c-1.6-.8-3.2-1.4-4.8-2-.6-.3-1-.5-1.2-1 0-.2-.3-.4-.5-.6-.6-.6-.8-1.3-.7-2 0-.7.3-1.2.3-1.8 0-2 0-4-1-5.8l-.6-.7c-.7-.6-1.5-1-2.3-1.5l-.6-.3.8 1.6c.8 1.4 1.2 3 1 4.7-.2 1.4 0 2.8.6 4v.7c-.7-.4-2-1-2.2-2 0-1-.3-1.8-.3-2.7 0-1.5-.7-2.6-1.7-3.6-1.8-1.8-3-3.7-4.4-5.7l-.3-.8c-.3-.5-.4-1-.6-1.6-.4 0-.6.3-.7.7 0 .3-.2.6-.3.8-.7 1.4.6 3.4 1 4.6.4.7 1 1.2 1.6 1.5 1 .5 1.4 1 1.8 2 .3.6.8 1 1.4 1.6 1 .8 1.3 1.8 1 3-1-.4-1.6-1-2.4-1.5h1l.3-.8c0-.2-.2-.4-.4-.6-.4-.4-.8-.8-1-1.3-.3-.2-.5-.3-.8-.2-.3.2-.3.4-.3.7 0 .5 0 1 .2 1.6l-2-1.8c-1-.7-1.5-1.6-1.7-2.7 0-1-.3-1.8-.4-2.7v-1.6c0-.8.3-1.7.5-2.5.2-.5.3-1 .7-1.2l.7-.8v-1c-.2-.4-.3-.8-.7-1-1-.7-.7-2.3-2-2.4l-.4.5c-.4.8 0 1.5-.8 2 0 1 .3 1.8.4 2.7 0 .2.5.3 1 .5l-1 .7-.6.8.2.7c.2.8 0 1.7 0 2.5 0 .7 1 .8 1 1.6l.2 1.7-1-.7c-1-1-1.3-2-1-3.3.2-.4.2-.8.2-1.2v-1.3-.6c.6-.3.4-.7.2-1v-.5c.2 0 .2-.2.2-.3 0-.7 0-1.4-.2-2-.6-.2-.7-.2-1 .4-.2.8-.4 1.6-.8 2.4-.2.2 0 .5 0 .8v3.2l-.5-.7-1.2-1.7c-.3-.3-.3-.5-.2-.8l.2-1c0-.6 0-1 .4-1.5s-.2-.8-.4-1.2V352c-.3 0-.5-.3-.7-.4.2-.6-.2-1 .6-1.4 0 0 0-.3.2-.5 0-.2 0-.5.2-.6.4-.4.3-.7.2-1-1-.3-1.5-.4-1.5-1.5v-.8c0-.4-.2-.6-.5-.6-.6 0-1 .4-1 1 0 2 .3 3.6.5 5.4-.7.4-.8 1.2-.5 2s1 .5 1.6.6c0 .7 0 1.4-.2 2h-.3l-1-1.3c0-.5-.3-1-.6-1.4-.4-.6-.3-1 .3-1.6.5-.4.2-.8.2-1.3 0-.6-.3-.8-.8-1-.2 0-.6 0-.7-.2l-1.2-2c-.3-.5-1-.5-1.3 0 0 .2 0 .3-.2.4h-1.4c0 .7-.5 1.3-.3 2 .4.3.8 0 1.2 0 .5.6.5.6 1.3.4.4 0 .7 0 1 .3 0 .4 0 .6-.3.8l-.3.6c0 .5 0 1 .6 1.4l1 1c.2 0 .2.2.4.5h-1.5c-.3-.7-.3-.7-1.3-1-.8-.3-1-.2-1.3.5 0 .2 0 .5-.5.5.4-.6 0-1 0-1.5-.7-.2-1 .3-1.3.7l-.4-1c-.8-.2-1-.2-1.2.5 0 .2-.2.5-.4.6-.5.4-.5 1 0 1.5.2 0 .3.2.5.4-.4.4-.4.8-.3 1.2 0 .6 1.4.6 1.8.2.2-.2.5 0 .7 0l.4.6c.4.3 1 .3 1.5 0 .7-.4.3-.7.5-1.4l.7-.4c.8-.3 1.5-.5 2.2-.2s1.4 1 2 1.4c.2 0 .3.4.6.8-.6 0-1 0-1.2-.2-.5 0-1 0-1.6-.5-.2-.2-.6 0-.8 0-.2.3-.4.3-.7.3h-.7c-.3.2-.6.2-.7.5 0 .4.4 1 0 1 0 .2-.2.2-.4.2l-.3-.2h-.7c-.5 0 0 1.8 0 2 .3.2.6.3 1 .2.2 0 .4-.3.7-.5.7 0 1.4 1 2.2 0 0-.3-.4-.7 0-1 .6.2 1.2.2 1.6-.4.3-.6 1.3.3 1.5.6-.4 0-1-.2-1.3 0-.5 0-1.5 0-1.5.6v.8c-.2.5-.7.8-1 1v.8c1.2 0 1.2 0 1.7-.7h1c.5-.2.4-.7.5-1 .5.5 1 1 1.8 1h.4l1.3.6c.2.2.4.3.3.6-.5 0-1 0-1.4-.2-.4-.2-.8-.2-1 0-.3-.2-.4-.4-.6-.4-.4 0-1 0-1.3-.2-.2 0-.5 0-.6.4 0 .5-.5.6-1 .6h-1c-.4 0-.6.6-.3 1 .6.4.3 1.4 1.2 1.7l.2.8c.5.3 1 0 1.4-.2.5.7 1 1 1.5.2l.4-.3c.7-.4 2.2-.4 2.4-1.3l.3-1c.7.4.7.4 1.7.5.3 0 .5 0 .7.2l1.3 1 2.2 2.3 1.5 1.3h-1.3c-1.4 0-2 .7-2.5 2 .6.4 1.3.6 2 .6.5 0 .8 0 1-.5l.8-.4c1.3-.3 2.5-.4 3.5 1l-1.5.3h-3.6l-2.5-.3c-.3 0-.5-.2-.7-.5l-1.2-1.7c-.2-.3-.4-.3-.8-.2v.6c.2 1.3 1 2.2 2 2.7l2.3 1c.5 0 1 .2 1.6 0l3.8-.7c1.2-.2 2.4-.2 3.6.3l4.4 2.2.4.3c-.3.3-.7.2-1 .2-1.2 0-2.5-.3-3.7-.4-2.2-.2-4.4-.4-6.6-.2-1 0-1.8.2-2.6.5 0 .3 0 .5.3.7l1.3.8c1 .6 1.8 1 3 1 .5 0 1.2 0 1.8-.2 1.5-.3 3-.4 4.5-.2.7.2 1.4 0 2-.3l2.3-1c.5-.2 1 0 1.4.3-.8.3-1.8.3-2 1.3-.4.7-1.2 1.4-.7 2.3h1.8c1.2 0 1.5-.3 1.7-1.3 0-.3.2-.7.4-1 .6-.3 1-.5 1.8-.3l5 1.6.7.3c-.8 0-1.4.3-2 .5l-2 .5-2 .3c-1.3 0-2.4 0-3.6-.2h-1c0 1 .6 1 1 1.2l3 1h2c1.3-.5 2.6-1 4-1.3l2-.8c0 .2-.4.4-.6.5l-1.8.6c-1 .3-1.2 1-1 2 .8.2 1.6.2 2.4-.4 0-.2.3-.3.4-.3 1-.2 2-.7 2.7-1.5.4-.2.5-.6 0-.7l-1.5-.3c.8-.5 1.5-.4 2.3-.2l1.7.6c.2 0 .3 0 .5.3-1.2 0-2.2.2-3 1 0 .4.4.6.7.6.7 0 1.4 0 2-.4l1.6-1c.4-.2 1-.3 1.2 0 .7 0 1.4.2 2 .3h.5c-1 .7-1.8 1.2-3 1-.7 0-1.5 0-2.2.2-1.2.4-2.5.5-3.7.3h-1.5v.7h-1l-2 .6s-.3 0-.5.2c0 0 0 .2.2.2 1 .4 2.2.8 3.3.7.8 0 1-.3 1-1l.8.5 1 .2 5.5-.2c.6 0 1.2-.2 1.6-.8l.5-1 .4-.5c.7-.3 1.4-.6 2.2-.3.5 0 1 .3 1.5.4.7.2 1.4.3 2 0 0-1-.5-1.6-1.4-1.4zm-48-22.6l-.6-.2v-.2c.2 0 .5 0 .5.4 0-.4.4 0 0 0 .4 0 .8.2 1 .7-.5 0-1-.2-1-.7z"/><path d="M-357.5 360.8c.4 0 0-.4 0 0zM-239.4 298.2c-1-6.6-3-13-6-19-10.8-21.8-33-35.6-57.5-35.6-5.2 0-10.5.6-15.5 1.8-11.7 3-22 8.7-30.3 17.4-10.8 11-16.8 24.3-18 39.7-.4 5.8 0 11.7 1.2 17.4 3 14.2 10.2 26 21.3 35.4 11 9.3 23.6 14.3 38 15 6.5.5 13 0 19.2-1.7 11.7-3 21.8-9 30.3-17.6 10.4-10.6 16.3-23.4 17.7-38.3.4-4.8.3-9.7-.4-14.5zm-.5 13c-.5 8.3-2.6 16.2-6.3 23.6-6.2 12.3-15.5 21.6-27.7 28-6 3-12.3 5-19 6.2-5 .8-10.3 1-15.4.5C-324 368-337.2 362-348 351c-9-9-14.6-19.7-17-32-1-5.3-1.4-10.6-1-16 1.2-15.4 7.2-28.7 18-39.7 8.4-8.6 18.6-14.2 30.2-17 5-1.2 10-1.8 16.4-1.8 15.7.3 30.5 6.2 43 18 8.7 8.7 14.5 19 17.2 31.2 1.3 5.8 1.7 11.6 1.3 17.5zM-376.6 331.8h.6-1 .4zM-371.5 319.7c-1.4-.4-2.8-.5-4.3-.3-2 .3-3.8 1-5.4 2.2-1 .8-1.7 1.7-2 3-1 2.3.5 5.2 3 6.4 1 .6 2 .8 3.3.8h1c2-.2 3.8-.7 5.5-2 .7-.5 1.4-1 2-1.8 1-1 1.3-2.2 1-3.5-.2-2.5-1.7-4-4-4.8zm2.3 6c-.5.4-1 1-1.7 1.2-1.3.7-2.8 1-4.3 1.3l-2.8.4h-.3c-.7 0-1.6 0-2.4-.5-1.7-.4-2-1.6-.7-2.8.6-.5 1.2-1 1.8-1.2 2.2-1.2 4.5-1.8 7-2h2l1 .6c1 .6 1.2 2 .4 2.8zM-376.6 331.8h-.3.4zM-378.3 328.7H-378.4zM-383.7 287.4c2.8 1.8.3-1.3 0 0z"/><path d="M-367.5 286.2s-.3 0-.4.2v.2c-.3.8-.4 1-1.3.7l-4-.8-8-1.5c-.5 0-.8-.3-1-.8v-.6l-.3-.4c-.2 0-.4.2-.4.3l-.7 4c.3-1.4 2.8 1.7 0 0l8.2 5-9.4 2v.3l-.7 3.4c0 .3-.2.7.2.8.4.2.4-.3.5-.5.4-.8.6-1 1.5-.8l4 .8 8 1.5c.6.2.8.4.8 1v.4c0 .6 0 .6.7.5l.8-4.6h-.7v.2c-.4 1-.5 1-1.6 1l-7.8-1.6c-.2 0-.5 0-.7-.2.2-.2.4-.3.7-.3l8.6-1.5c.3 0 .8 0 1-.4 0-.5-.5-.6-.8-.8l-6.7-4c-.2 0-.4-.3-.6-.4h.5c2.3.4 4.6 1 7 1.3 1.3.2 1.3.2 1.3 1.5.8.3.8.3 1-.3l.8-5v-.4c0-.2-.2-.4-.3-.4zM-376 331.8h-.6.6zM-274.7 232.3V231v1.3zM-251 250h-.3.3zM-275.3 241.3c3-2.7 4-6 3.5-10-.4-2.7-2.8-4.4-5.6-4.2-2 .2-3.3 1.2-4.5 2.6-1.5 2-2.3 4.4-2.4 7 0 1.2 0 2.2.4 3 1.5 3.6 6 4.2 8.7 1.7zm-6.6-3.6c.6-2.7 1.6-5 3-7.3l1.3-1.3c.3 0 .5-.3.8-.4 1-.4 1.7-.2 2 .7.3.7.3 1.4.4 1.8v1.3c-.4 2.6-1 4.8-2.5 7-.4.3-.7.8-1 1.2l-1.3.8c-1 .5-2 0-2.5-1.2-.3-.7-.2-1.5 0-2.3zM-257 256v.3c.3.2.5.2.6 0v-.5c0-.2-.4-.3-.5-.5-.3-.5-.3-.7 0-1.2 1-1 2.2-2 3.2-3.2 0 0 .3-.3.5-.3l2.3-.4h-.3.3l.2 1.6-1 1.6c-.6.6-1.2 1.2-1.7 2-.4.3-.7.8-1 1.3-.3.8 0 1.7.5 2.4.8 1 2.8 1.4 4 .8.2 0 .4-.2.6-.4.4-.4 0-.7-.4-.7h-.4l-.7.2c-.7-.2-1-.7-.7-1.4 0-.2.3-.5.5-.7l1-1.3 1.4-2.2c.6-1.2.4-2.3-.3-3.3-.2 0-.3-.3-.4-.5l5.6-1c1.3 0 2 .7 3 1.2 0 0 .2 0 .3-.2.3-.2-.3-.6-.4-.7l-2.4-2.2-1.2-1c-.3-.3-.4-.2-.5 0 0 .4.3.6.4 1 .3.5.2.8-.5 1l-6 .8h-.5l.4-.7c.8-1.2 1.8-2.2 2.7-3.2.4-.4.8-.5 1.3-.3 0 0 1.7 1 1.2 0-.2-.5-1-1-1.3-1.3l-1.6-1.4-1.5-1.4c-.3-.2-.5-.2-.7.2 0 .2.3.4.4.6.4.7.3 1.2-.2 1.7l-1.7 1.7-6.6 7c-.6.7-.8.7-1.4.3l-.4-.3c-.2-.2-.3-.2-.5 0-.4.3 0 .6 0 .8l4 3.6zM-305.4 238.7h5.4v-.3c-.3 0-.5 0-.7-.2-.7-.3-.8-.5-.8-1.2v-2.8c0-1 0-2.3.2-3.5h4.7v.3s0 4-.2 6.2c0 .5-.2.7-.7 1h-.4v.5h.6l4.8.2h.2l.3-.3c-.2 0-.3-.3-.4-.3-.2 0-.5 0-.7-.2-.8-.2-1-.4-1-1l.4-11v-2.5c.6 0 1-.2 1.4-.3.2 0 .4 0 .4-.3l-.4-.2h-5.3s-.3 0-.3.2 0 .2.2.3h.4c.7.3.7.3.7 1v2.6l-.2 2.2c-1.6 0-3 0-4.6-.2v-4.6c0-1 .2-1 1-1h.4c.4-.2.5-.4.4-.7l-6-.2c0 .5 0 .5.3.6 0 .2.2.2.3.2 1 .2 1 .3 1 1.3v2.4l-.4 10c0 .6-.2 1-.7 1h-.7l-.3.4c.2 0 .3.2.4.3h.2zM-380.4 317l9.3-.5c.5 0 .7 0 1 .7v1c.8 0 .8 0 .8-.6 0-1 0-2-.2-2.8v-1c0-.3-.3-.5-.5-.4l-.3.3v.2c0 1-.2 1-1.2 1-2.7 0-5.4.3-8 .5l-.6.2-.3-.2h.8l8-3.7c.3-.2 1-.2 1-.8-.2-.6-.7-.5-1-.6l-7.4-2.2-.7-.3c.6-.3 1.3-.4 2-.4 2 0 4-.3 6-.4.8 0 1 0 1 .7.2 0 .2.3.3.5.7 0 .7 0 .7-.5 0-1.8-.2-3.5-.3-5.2v-.3l-.5-.2-.3.3v.3c-.2.6-.3.8-1 .8-2.2 0-4.4.3-6.5.4-2 0-4 .2-5.8.3-.7 0-1-.2-1.3-.7 0-.2 0-.4-.2-.5l-.4-.3c-.2 0-.2.2-.2.4v2l.3 2 9.3 2.8v.2l-8.8 4c.2 1.6 0 3 .3 4.6.4 0 .6 0 .6-.3v-.2c.2-1 .4-1 1.4-1.2 1 0 2 0 2.8-.2z"/><path d="M-380.3 315.5l.2.2.5-.2h-.8zM-241 356.5c-.2 0-.4.2-.5 0-.7-.3-1.7-.2-2.5-.4-.4 0-.7 0-1 .5 0 .3-.3.5-.6.6l-.8.5c-.6.7-1.4.7-2.3 1 .3-1.3 1.2-1.2 1.8-2l.4-.6c.3-.5.3-.8.2-1.2v-.4c0-.6 0-.8.6-1 .3 0 .6 0 .7-.5v-.3c.4 0 .4-.3.4-.6 0 0 0-.5.2-.6.3 0 .4.2.5.4 1.3-.4 1.4-.4 1.2-1.4h-.6v-1.6l-.6-.3v-.8l-.7-.2c-.4 0-.6.2-.5.6 0 .2 0 .3.2.4.3.5.2.7-.3.8h-1c0 .4.3.7.4 1 0 .6-.3 1.2-1 1.4-.4 0-.5.5-.6 1-.3 1-1 1.6-1 2.6-.3.7-.6 1.5-1.2 2l-.5.6c-.3.3-.4.8-1 1 .4-1 .2-2.3 1-3 .2 0 .3-.2.3-.3.4-1.2.6-2.2.5-3.5 0-.6 0-1 .6-1.3s.2-1 0-1.4c-.2 0-.6 0-1-.2v-1c-.4 0-.8-.2-1.3 0 0 .4 0 .4-.4.8-.2.2-.2.5-.3.7.3 0 .4 0 .6.2.6.3.7.7.3 1.2-.2 0-.5 0-.6.3 0 .2-.3.5-.2.6.5.5.4 1 .3 1.8 0 .5 0 1-.3 1.4-.6 1-1 2-1 3.4v1.6c-.2.7-.5 1.3-1 2v-.6c.2-1-.2-2-.4-3 0-.2 0-.4-.2-.5l-.5-.2-.2.5v1.5c0 1.4-.3 2.6-.7 4 0 .4-.2.8-.4 1.3v-3-.4c.5-.6.5-1 0-1.6-.2 0-.2-.3-.2-.5l.5-.2c0-.7 0-1.4.2-2v-1h-1c-.2-.2.2-.5.2-.7 0-.3 0-.7-.2-1-.2 0-.6-.2-1 .2.3 1 0 1.5-.8 1.8-1 .3-1 1.5-.8 2.4.6 0 1 .4.8 1 0 .3.4.6.5 1v1l-.3 3.7c0 .2 0 .3-.2.5-.4 1.2-1.5 2-2 3v.2l-3 2.6c0 .2-.3.4-.6.3 1-1.2.5-2.4.5-3.7-.7 0-1.2.3-1.5.8-.3.4-.3.8-.4 1.3 0 1-.3 1.8-.5 2.6 0 .6-.3.7-1 .5 0-.2-.4-.3-.8-.4v.3c.6 1 .4 1-.3 1.3l-4 2c-.4.3-1 .5-1.5.3-.4.7-1 1-1.8 1l-1.7.6c-.7 0-1.3.4-2 .6l-2.4.7h-.8l.7-.5 2-1.5.6-.6c0-.3.2-.7 1-1.5 0-.8 0-1.7-.2-2.5 0-1 0-1.8.6-2.4.8-.8 1.4-1.8 2.7-2 .4 0 .4-.2.3-.4-1-.3-2 0-2.7.6-.6.5-1.3 1-2 1.3-.6.4-1 1-1 2s0 2 .2 3.2c0 1-.4 1.6-1 2.2-.2.5-.7.8-1 1.3-.6.6-1.2.7-2 .8l1-2c.6-.5 1.3-1 2-1.2.4 0 .5-.4.4-.8l-.3-1.5c-.7 0-1 .4-1.4.7-1 .6-1.4 1.5-1.8 2.5l-1 2c-.5.7-1 1-2 .7.5-.8 1.4-1.8 1-2.6-.5-.6-1.4.3-1.5.7-.2 1-.7 1.6-1 2.3-.3.3-.5.5-1 .2v-.5l1.4-2.5c.4-.6 1.7-1 2.4-1.2 1.7-.2 2-2.5 3-3.6 0-.2.3-.4.3-.7 0-.7 0-1.3-.3-2 0 .3-.3.6-.4 1-.2.4-.4 1-1 1.2 0 .2-.3.5-.5.7-.2.3-.5.6-1 .8l-2.3 1-1 1c-.4.8-1 1.8-.8 3 0 1.3-.3 2.2-1.6 2.4l-4 .5h-.3l1.6-2c.3-.2.4-.6.3-1-.8 0-1.4.2-2 .3-.5 0-.7.3-1 .8 0 .7-.4 1.4-.7 2h-3.7c-.6 0-1.2-.3-2-.4 0-.4-.4-.8-.3-1 .2-1.2.6-2.3 1.8-2.7.5 0 1-.4 1.3-.6 1-.3 1-1 1.2-2l-2.4.5c-1.4.4-1.4 1.7-2 3-.4.7-.4 1.4-.2 2v1.2c0 .2 0 .4-.3.5l-2.5 1.5c-2.3 1.5-4.7 3-7.2 4.2-.7.3-1.4.4-2 .8-.8.3-1.6.3-2.3.4-.2 0-.3 0-.5-.2-.3 0-.6-.3-.8-.4-.5.3-.7.8-.5 1.3.2.3.7.3 1 .3 1 0 1.8 0 2.6-.4l3.5-1.6 2-1c1.3-1 2.8-1.6 4-2.6.6 0 .8-.6 1.2-1 1-.5 2-1 3.2-1 1.5.2 3 0 4.6.6 0-.5.4-.6.7-.6l5-.7h2c2-.5 4-1 6-1.3l4.4-1c.5 0 1-.4 1.6 0 0-.2.2-.5.4-.6.8-.3 1.6-.6 2.5-.3l1.7.6c.8.3 1.6.5 2.5.3h.7c1.2.5 2.4 1 3.6 1 1 .3 2 .3 3.2.3 1.2-.2 3-1 3.5-2.2l-.6-.2-3.3-.3h-2.8c-1.3 0-2.6 0-4-.2h-2.8c.8-.8 2-1 3-1.5l2.4-1.3c.5-.2 1-.3 1.5 0 1.8.4 3.6 1 5.3 1.6.6.2 1 0 1.5 0l2.5-1.2c.3 0 .5-.2.5-.6h-2.5c-.6.2-1.2.3-1.7.2-1.4-.2-2.8-1-4.3-1.3l.6-.6c.7-.5 1.7-.5 2.6-.2.8.3 1.4 1.4 2.3 1.4.4 0 1 0 1.4-.4v-.6c-.4-1-1-1.5-2-1.6l-1.5-.3c.4-.4.8-.8 1.2-1 1-.8 1.7-1.6 2.4-2.5.6-.8 1.3-1.2 2.2-1h.7c.7.2 1.3 0 2 0 .5-.3 1-.3 1.7-.5h.4c.5.5 0 1-.3 1.3l.6 1.3c.2.5 1 .5 1-.2.2-.3.4-.6.8-.7.3 0 .5-.3.5-.6v-1c.2-.3 0-.5-.4-.6-.4 0-1 0-1-.2-.4-.4-.8-.3-1.2-.3-1.3 0-2.7 0-4 .2h-.7c.5-.3 1-.3 1.6-.3.7 0 1.2-.2 1.8-.6.2-.2.5-.3.8-.3.3 0 .7 0 1 .2h.8c.5-.4 1-.2 1.6 0 0-.7.6-.4 1-.7-.2-.5-.4-.8-1-1l-.6-.4c-.3-.3-.5-.4-.8 0 0 0-.2 0-.3.2-.4-.6-.8-.5-1.2-.3-.4.2-1 .3-1.4.7-.4.5-.8.5-1.4.5 1-1.3 2.7-1.5 4-2 .4 0 .7-.2 1 0h.7c.4 0 .8-.4 1.2-.5.7-.3 1.4-.7 2.2-.2l1.3-.5v-.8c-.4 0-.7-.2-1 0-.4 0-.7-.2-1-.3-.7-.2-1.3-.4-2 0h-.5c-.6.2-1.5 0-1.8.7 0 .4-.2.6-.6.7-.3 0-.5.2-1 .4l.4-.6c1.4-1.6 3.8-1.3 5.4-2.8.4-.3 1-.5 1.4-.6h1.5c.6 0 1 .5 1.5.4 0 1-.5 1.8 0 2.8h1v-1c0-.2.4-.4.5-.6v-.5-.4c0-.4-.2-.8.2-1 .3-.3.2-.8 0-1-.5-.4-1-.4-1.5 0zM-233.6 266.7zM-330.7 237.4c0-.2-.2-.2 0 0zM-226 274c0 .2.3.5.5.6.3.2.5 0 .5-.4v-.3l-1.8-3.3c0-.2-.2-.5-.5-.4-.4 0-.2.4 0 .7.3 1.6-1.4 2-2.5 2.6l-4.8 2.5c0 .2-.3.2-.5.3h-.2l6-10.2c-.8-1-1.4-2.2-2-3.4 0-.2-.3-.4-.5-.3-.4 0 0 .7 0 1 0 .7 0 1-.7 1.2-3.6 2-7.3 4-11 5.8-.5.3-1 0-1.2-.5 0-.2-.3-.5-.7-.3-.4.2 0 .5 0 .8l1 2 .6 1c.3.5.6 0 .7-.2v-.2c-.4-.8-.4-1 .4-1.3l8.4-4.5.6-.3c0 .3 0 .6-.3 1l-6 10.6c-.6 1-.4 2.6 1 2 .2-.3.5-.4.7-.5 3.6-2 7-4 10.7-5.8.6-.3 1-.3 1.5 0zM-370 283.7zM-233.6 266.7c-.2 0 0 0 0 0zM-220.4 318v.4c-.5.8-1 1-1.7.8l-7-1.5-5-1c-.6-.3-.7-.4-.7-1v-.8c0-.2-.3-.4-.4-.4l-.5.2v.4l-.8 3.3c0 .6-.3 1.3-.4 2 0 .2 0 .4.3.5.4 0 .5 0 .6-.4v-.5c.3-.5.5-.6 1.2-.5l4.4 1s.4 0 .5.2l1.6 1.8-1 .5h-2c-.6 0-1.3 0-2-.2-1 0-2-.3-2.8 0-.8 0-1.3.5-1.6 1.2-.7 1.2 0 3.4 1 4l1 .5c.4 0 .6-.3.4-.6 0-.3-.3-.4-.4-.5l-.5-.6c-.3-.8 0-1.4.8-1.4h1c1.2.4 2.4.6 3.5.5 1.5 0 2.6-.6 3.2-2 0-.2 0-.3.2-.4 1 1.4 2.2 2.7 3.3 4 .8 1 1 2 1 3-.2.2-.2.3-.2.5 0 .3 0 .4.4.4 0 0 .3-.7 0 0 .3-.8.5-1.6.6-2.6l.6-3c0-.3 0-.6-.3-.6 0 .4-.2.8-.5 1-.3.5-.6.5-1 0l-3.7-4.5-.2-.6 4.6 1c1 .2 1.2.6 1.2 1.5 0 .2-.2.7.3.7.4 0 .3-.3.4-.6.4-1.7.8-3.3 1-5 .2 0 .2-.3.2-.4 0-.4-.3-.5-.6-.2zM-222.8 331.4c.3-.7-.2 0 0 0zM-222.7 331.4z"/><path d="M-313 239.5c-.3-1-.4-2.2-.5-3.2 0-.6 0-1.3-.2-2 0-.5-.6-.3-.8 0v.6c-.2 1-.4 2-1 3-.5 1-1.3 1.4-2.2 1.6h-.5l-.3-.8-2.7-11.3c-.3-1 0-1.5.7-2h.2c.3-.6-.5-.6-.7-.5l-4.5 1.2h-.4c-.4.5.4.7.6.7 1 0 1.2.2 1.4 1l1.4 6 1.4 5.7c.2.6 0 .7-.4 1l-1 .5c-.8.2-1 0-1.6-.5l-8.6-11-.6-.8c-1 .3-2 .6-2.8 1v.5c1 4.6 1.8 9 2.6 13.7.2 1 .2 1-.7 1.6-.4.2-.5.4-.4.7.2.4.5.3.7.2l3.2-1.2c.3 0 .5-.2.4-.6-.2-.4-.4-.4-.7-.3-.4 0-.8.2-1.2 0l-.6-3.5 4-1.6 2.3 3c-.3 0-.6.3-.8.5-.2.3-.7.4-.7.7s.3.4.6.4h.5l2.3-1 3.8-1.4 7.2-2h.7zm-20.2 0l-1.2-6.8 4.2 5.4-.5-.6c-.2-.2 0 0 0 0l.5.7-3 1.4zM-370 283.7zM-374.5 271c-3.7 0-6 3.4-5 7 .4 1 1.2 2.2 2.2 3 2 1.8 4.4 2.6 7.2 2.7 1.7 0 3.4-.4 4.7-1.7 1.2-1 1.5-2.8 1.3-4.4-.6-4.6-6.4-7-10.5-6.7zm7.2 10.2c-1 0-1.8 0-2.6-.2-2.2-.5-4.2-1.5-6-3-1-.5-1.8-1.3-2.2-2.2-.3-1 0-1.5.8-1.8.5-.2 1.2-.3 1.6-.3l1.3.2s5 1 7.3 2.6c.6.4 1 1 1.5 1.5 1 1.6 0 3-1.6 3.2z"/><path d="M-318.2 239.7h.5c0-.2-.6-.2-.5 0zM-370 283.7c-.6 0-2.4 0 0 0zM-337.3 242.8v.5l.2 1.7c0 2-1 4-3 5l-3-4.4-.6-1c-.3-.5-.3-.7.3-1 .8-.4 1.5-.3 2 .2.4.2.7.6 1 1 .5.5 1.2 0 .8-.7l-.2-.2-3.2-4.7c0-.3-1-.6-.8 0 0 .4 0 .6.2 1 .2.8.2 1.6-.3 2.4-.4.7-.7.7-1.2 0l-1.4-2-1.6-2.4c1.7-1.3 4-2.4 6-1l1 .7c.5.5.8.4 1.2-.3l-3-4c1 1.4-.3.3 0 0-.3.3-.5.4-.4.6l-6.8 4.7-2 1.4.2.2s.7.4 1 .2c.3-.2.6-.5 1 0l.2.4 6.8 10c.5.8.5.8-.2 1.5 0 .2-.2.5 0 .6h.4c.2 0 .3-.2.5-.3l7-4.8.6-.5v-.3l-1.8-4.3c0-.5-.7-.8-.8-.2z"/><path d="M-343 233.5c-.3.2 1 1.3 0 0zM-367 255c-.3.2 0 0-.2 0l-2 3c-.3.2-.6.4-.3.7s.5 0 .7-.3c.7-.6 1-.6 1.7 0 2 1.3 3.8 2.8 5.8 4.2l.5.5h-.6c-2.5 0-5-.2-7.5-.4l-3.2-.2c-.2 0-.5 0-.6.2l-2.3 3.2c.5.4.5.4 1 0 .8-.6 1-.6 2 0 3 2.3 6 4.6 9.2 6.8 1 .7 1 .8.4 1.8 0 .3-.2.6.2.7.3.2.4 0 .6-.3.5-.6 1-1.2 1.3-1.8l1-1.4c-.6-.6-.6-.6-1 0-.7.5-.7.5-1.4 0-2.6-1.8-5-3.7-7.7-5.5-.2 0-.4-.2-.6-.4h2l10.3.7h1.4s1-.3 1-.7c0-.5 0-.7-.5-1-.6-.4-1.2-1-1.8-1.3-3-2-5.8-4-8.7-6.2-.7-.5-.6-1.2-.3-2-.2-.2-.4 0-.4 0zM-366.3 254.7c.7-.5 1.4-.3 2.2 0l5.6 3 6.6 3.6c.6.3.8.3 1.2 0 .5-.5.6-.8.2-1.4l-4.5-7.6c0-.2 0-.4-.3-.7l.8.4 7.4 4.5c.5.3.7.3 1 0 .7-.7.3-1.2 0-1.8-2-4-4.2-7.8-6.3-11.8-.4-.7-.7-2 0-2.6-.2 0-1 .8-1.8 1.5l-1.3 1c.3.8.8 0 1.3 0 .6-.2.8 0 1 .6l4 7c0 .3 0 .5.2.8-3-1.6-5.8-3.3-8.6-5-.4-.3-.8-.3-1.2 0-1.5 1 .5 3.2 1.2 4.3 1 1.8 2 3.5 3.2 5.2 0 0 0 .3.3.6l-8-4.3c-.6-.3-.3-.7-.3-1.2 0-.3-.2-.6-.6-.2l-3.3 3.3-.6.7.4.2M-322.2 374.8c-.5-.6-1-1-2-1.2-.5-.2-1-.6-1.2-1.2l-1-1.2-1-1-.6-.3c.2 0-.2.6-.2.4-.3 1-.2 1.8 0 2.6 0 .7.5 1.3 1.2 1.7l3 1.7c1 .5 1.4 1.2 1.6 2.2l.3 1c0 .5 0 .5.8.3 0-1.3 0-2.5-.2-3.7-.2-.5-.4-1-.8-1.5z"/><path d="M-328 370l-.2.4c0 .2.4-.4.2-.5zM-309.8 224.5zM-379 337.2s0 .4 0 0zM-228 278h.4c.7 0 1.4 0 2 .4.7.3 1 .8 1.2 1.5h-.2l-12.2 3.6c-.4 0-.8 0-1-.3 0-.2-.2-.4-.4-.6 0-.2-.2-.2-.5-.4.3.2 0 .4 0 0v.6l1.6 4.8s0 .5.3.4c.3 0 0-.5 0-.7 0-.8.2-1 1-1.3 4-1 7.8-2.3 11.7-3.4h.5c.6 1.3.2 2.5-1 3.2l-1 .4c-.2 0-.3.3-.2.5h.8l3.6-1c.2 0 .3 0 .5-.2l-3-10-3.8 1c0 .2-.3.2-.4.3l-.3.6c0 .2.2.3.4.4z"/><path d="M-238.7 282.3c0 .4.3.2 0 0zM-221.2 287.5l-.3-.3c0 .2-.2.3-.3.4-.2.4 0 1-.3 1.3l-1.2.4-8.8 1.4c-2.7.4-4 2-4 4.7s-.2 1 .2 1.6c.7 1.4 1.5 2.8 3.5 3.3l1.6.2c1.2 0 2.3-.2 3.4-.4 2-.2 4-.6 6.2-1 .4 0 .8.2 1 .7l.3.5c0 .2 0 .5.4.4.3 0 .2-.4.2-.7l-.6-3c0-.4 0-.7-.2-1l-.4-.2s0 .2-.2.3v.3c0 1-.4 1.4-1.5 1.6-1.6 0-3.4.4-5 .7-1.7.3-3.6.8-5.2.4-2.5-.5-2.8-4.2-.5-5.3l1.5-.4c3-.4 5.8-1 8.7-1.3.7 0 1 0 1.3.7l.3.6.5.2c.3 0 .2-.4.2-.6l-.8-5c0-.2 0-.3-.2-.5zM-306.4 223.2v-.6l-10.5 1.2.4 3c0 .4 0 1 .2 1.5 0 .2.2.4.4.4.3 0 .5 0 .5-.4v-.7c.2-.7.4-1.3.8-1.8.4-.6 1-1 1.7-1v.4c.6 4 1 8 1.5 12.2 0 1-.4 1-1.2 1.5-.2 0-.3.2 0 .4h.6c1 0 2-.3 3.2-.4.6 0 1.2 0 1.8-.2.2 0 .3-.2.4-.3-1-.5-1.8 0-2-1.4l-1.2-12.5h.6c.2 0 0 0 0 0h-.3-.2c1.5-.3 2.7.4 3 2v.7s0 .4.4.4.3-.4.3-.7c0-1.3-.3-2.6-.4-3.8zM-366.4 331.6c-1-.4-2-.4-3-.4-.2 0-.5 0-.5.4s.3.6.7.7h1l1.8.5c2 .7 2 3.2.7 4l-1.6 1-5 2.2-1.8.8c-1 .3-1.8.3-2.6-.3-.6-.4-.8-1-.8-1.6 0-1 .4-2 1-2.6l2-1.6c.5-.2.6-.5.4-.8-.2-.4-.5-.3-.8-.2l-4.7 2c-.3 0-.6.2-.5.6 0 .3.2.6.5.7.2 0 .4 0 .6.2 0 .4 0 .8-.2 1.2 0 1.5.5 2.7 1.7 3.6.6.5 1.4 1 2.2 1.2 1.3.4 2.7.5 4 .2 2.5-.5 4.5-1.6 6-3.6 1.2-1.4 1.7-3 1.5-4.7-.2-1.6-1-2.7-2.6-3.4zM-328.2 370.4c0-.2 0-.3.2-.5l-.2.4zM-309.5 224.4h0zM-226.7 341.3c-.4-.3-.2.5 0 0z"/><path d="M-223.2 332.4c-.4.6-1 .8-1.7.8l-7.8.3c-.4 0-.7 0-1-.2l-4-1.8c-.6-.4-.7-.6-.5-1.3v-.3c.2-.4 0-.6-.2-.7s-.4 0-.5.3l-2.2 4.8c0 .3-.2.5 0 .7.4.2.6 0 .7-.2v-.2c.5-.5.7-.6 1.3-.3 1.6.7 3 1.4 4.7 2l.7.7 4.3 6c.3.3.5.8.4 1.4-.2.2-.2.5-.3.8 0 .3 0 .5.2.6.2 0 .3-.2.4-.4l1.3-2.8.6-1.3c-.2.5-.4-.3 0 0-.6-.4-.6 0-1.2.6-.3.2-.5.2-.8-.2-1-1.5-2.3-3-3.4-4.5 0 0 0-.3-.2-.5h.5l5.5-.3c.7 0 1 0 1 .8v.6l.5-.4.7-1.5c.6-1 1-2 1.6-3.3v-.5c-.2 0-.4 0-.5.2zM-273.3 370.2h-1c-.5 0-.6.2-.8.8l-.4 1.2c-.3.6-.5 1.3-1 2-.3.4-1 .7-1.4 1-.7.4-.5 1-.7 1.7l-.4.7c0 .2 0 .5-.2.6-.2.2-.3.5 0 .8h.3c.7 0 1.3-.3 2-.4 1 0 1.8-.7 2.7-1l.5-.6c.4-.8.8-1.5 1-2.3.2-.3.4-.7.3-1l-.8-3.5zM-220 312.8c0-.4.3-.6.3-.8.8-1.4 1-2.8.2-4.3-.5-1-1.2-1.8-2-2.5-3-2-7.5-2.3-10.5-.5-1.4.8-2.4 2-2.8 3.6-.4 1.6 0 3 1 4 .7.8 1.5 1.3 2.4 1.7.3 0 .5.2.7 0 .4-.8-.3-1-.7-1.4l-1.7-1.3c-.8-.7-1-1.5-.7-2.5.3-1 1-1.5 2-1.7h1c2.6 0 5.2.2 7.8.4 1 0 2 .6 2.5 1.5.3.5.3 1 0 1.7-.4 1-1.2 1.5-2 1.8l-2.6.5c-.5 0-.7.2-.7.6 0 .4.3.5.6.5l5 .4c.3 0 .6 0 .7-.3.2-.6-.3-1-.7-1.2zM-240.4 251.6c0 .2.5-.6 0 0z"/><path d="M-220 312.7c.2.2 0-.2 0 0zM-243 266c-1 .3-2 .4-3 .2-1.4-.3-2.5-1-3.3-2.4l5.2-4c.3-.2.5 0 .7.2.5.7.5 1.5 0 2.2l-1 1c-.4.5 0 1.2.6 1l.3-.3 4.6-3.5s.2 0 .3-.2c.2-.2.3-.4 0-.6h-.4c-.2 0-.5 0-.8.2-.8 0-1.6 0-2.4-.4-.5-.3-.5-.6 0-1 1-1.2 2.5-2 3.8-3 0-.2.3-.3.5-.4.7.6 1 1.2 1.5 2 1 1.5.7 3-.4 4.5l-.3.5c-.2.3 0 .6.2.8.2.2.4 0 .6 0l3-2.7.5-.4c-2-3-4.3-5.8-6.4-8.6-.4-.5-.6-.4-1 .2.5-.6 0 .2 0 0l.3.7c.3.5.3.5-.3 1h-.2l-7.4 5.8-2.4 2c-.5.3-.7.3-1 0l-.3-.3c-.2-.3-.4-.4-.7-.2s-.2.5 0 .7l5.5 7.3c.2 0 .3.3.4.4l4.5-2.2s.2 0 .2-.2v-.5c0-.3-1 0-1 0zM-271.5 375.7v.3c.2 0 0-.3 0-.3z"/><path d="M-268 366c-.6 1-1.2 1.7-1.6 2.6-.3.6-.6 1.3-.5 2 0 1.5-.2 2.8-1 4-.3.3-.6.6-.5 1 0 0 .2.4 0 .4h.6l2.7-1.4c-.3-1.3 0-2.6 0-4 .3-1 .6-2.3 1.6-3l.3-.6c0-.8.2-1.7 0-2.5-.8-.3-1 1-1.6 1.6zM-271.5 376v-.3.3zM-258 236.3s0 .4 0 0zM-267.2 231.3l-.3-.2c-.3 0-.7.2-.6.6 0 .2 0 .3.2.4.7.5.7.5.3 1.3l-2.2 4-3.4 6.2c-.6.8-.6.8-1.4.5-.4-.2-.7-.2-.8 0 0 .4 0 .6.3.7 1.6 1 3 1.7 4.6 2.5.2 0 .4.2.6 0 .4-.7-.5-.8-.7-1.2-.3-.3-.2-.5 0-1l2.4-4.3v-.4c.3-.2.5-.2.8 0 .8.3 1.2 1 1 2 0 .4-.2.8-.4 1.2 0 .3-.2.6.2.8.3 0 .5 0 .8-.4v-.3l3-5.2c0-.3.2-.5 0-.7-.3-.2-.5 0-.7 0l-.8.8c-.6.4-1.2.7-2 .7-1 0-1.2-.3-.7-1.2l1.6-2.7.7-1.4c1 .2 1.6.6 2.3 1 1.4 1.2 2 2.5 1.4 4.2l-.2.6c0 .4.2.6.5.7.3.2.5 0 .6-.3l1.2-2.6.6-1.3c0 .4 0 0 0 0s-.2-.2-.5-.2l-8.7-4.7z"/><path d="M-267.7 373v-1.6c0-.7.3-1.4.5-2 .4-1.4 1.5-2.2 2.6-3 .7-.3 1.3-.7 2-1.2l.6-1c.5-.8 1-1.7 1.3-2.5.2-.4.4-.6 1-.6l.2 1.5c0 .3 0 .7-.2 1-.7.7-1 1.6-1.5 2.5-.5 1-2 1.4-2.8 2-1 1-1.8 2-2.3 3l-.7 1.5c0 .3-.3.4-.7.5 0-.6.4 0 0 0zm-37.7 12.8c.3-.3.5-.2.7 0l1.7 1c1.6 1 3.2 2.4 5 3.4 1.4.8 3 1.6 4.7 2 .6 0 1.4.2 2 0 .4-.4.5-1 1.2-1 .3.2.3.6.3 1 0 .3-.2.4-.5.5-1.4.6-2.8.7-4.2.3-.8-.2-1.5-.5-2.3-1l-3-1.4c-1.7-.7-3-2-4.5-3-.2 0-.3-.3-.5-.4-.4-.4-.4-.4-.7-1.4.2-.3.3 1 0 0zm33.5-11.5c0-1-.3-1.8-.5-2.8v-.7c-.3-1 .3-2 .6-3 .3-.8.5-1.4 1-1.8l2-1.2c.4 0 .8 0 1.2-.2 0 .4 0 .6-.3 1-.3 0-.4.5-.6.7l-1.2 2c-.3.5-.5 1-.5 1.7 0 1.3 0 2.7-.7 4-.3.4-.3.4-1 .3 0-1 .7 0 0 0zm-39.5 5.2c-1 .4-1.8.6-2.7.2-1-.4-2-.6-2.7-1.2-.2-.2-.4-.4-.5-.8-.3-1-.6-2-1-2.8 0-.4-.3-.6-.4-1l.6.2 2.5 1c.5.2.8.5 1 1 .7.8 1.3 1.7 2.2 2.4.5.2 1 .5 1.3 1-1 .4-.4-.5 0 0zm13.5 6.2h.3c1 .2 2 0 3.2 0 .8 0 1.6.2 2.3.5l1.4.6c.4 0 1 0 1.4.2 0 .4 0 .8-.5 1-.4.3-1 .5-1.6.5-1 0-1.8 0-2.7-.2h-1c-.7 0-1.3-.2-1.8-.5-.8-.3-1-1-1-1.6v-.5c.2 0 0 0 0 0zm7.5-2h.8c1.7 0 3.3.4 4.8 1.2.3 0 .6.2.6.4.2.6.4 1.2.3 1.8-1 .2-2 0-3-.2-.7-.8 0-1 .4-1.6-.3 0-.6 0-1 .2-.4 0-1 .2-1.3 0-.4-.2-1-.7-1.3-1.2 0 0 0-.4-.2-.6.3 0 0 .2 0 0zm-9-3.4c-.2-.3-.2-.5 0-.6.4 0 .7-.2 1-.4 1-.5 1.8-1.2 2.4-2 .2-.5.6-1 1-1.3 0 0 .2-.3.4-.3l1.4-.3v1.5l-1.3 2c0 .2-.3.4-.5.4l-4.6 1c0-.4 1.6-.4 0 0z"/><path d="M-259 363.5c.5.8 0 1.5 0 2.3-.3 1.2-1 2.2-1.7 3l-.6.8c-.3.6-1 .6-1.5.5l-.2-2c0-.2.2-.4.4-.5 1-.2 1.3-1 1.7-1.7.6-.7 1-1.8 2-2.3.4.8-.2 0 0 0zm-28 19.8c.5-.2 1-.2 1.4 0 1 0 2 .4 2.8.7l3 1c.7 0 1.4 0 2.2-.2h.4c.2.2.2.4 0 .6-.8.4-1.5.8-2.2 1-.3.2-.7.2-1 0-.3 0-.5 0-.8-.2-1.8-1-3.5-1.7-5.3-2.6-.2 0-.3-.2-.5-.3.6-.2.2 0 0 0zm-41.3 1c.2 1 0 1.4-.8 1.7l-1.3.5h-1.5c-.8 0-1.5 0-2.3-.2-.6 0-1-.3-1.4-.5-.3 0-.4-.4-.2-.6h.5c.4 0 .8 0 1.3.2.4 0 1 0 1.3-.2 1.2-.6 2.7-.6 4-1 .3 1-1.3.4 0 0z"/><path d="M-282.5 382.3l.7-.2c.6 0 1.3-.3 2-.4.6-.2 1 0 1.3.6.3.6.7 1.2.6 2l-.3.2c-1 .2-2.3.2-3.3-.2-.2 0-.3-.2-.4-.4-.3-.5-.4-1-.5-1.5.3 0 0 .5 0 0zm-1.2 3.3l4 1.5 1.2.5s.4.6 0 .8c-.6.4-1.3.5-2 .3l-1.7-.6c-.7-.2-1-.6-1.2-1.2l-.3-1.2c1.5.5 0 .5 0 0zm9.2-1.6l-2.7-.2c-.6 0-1-1.8-1.2-2.2-.3-.7.7-1 1-1 .7 0 1.3.5 1.6 1 .2.6.4 1.3 1 1.7.2 0 .2.3.3.7-1 0 0-.4 0 0zm-32.7-3.2l-.3-.6-1-1.5-.5-.2-1-.3c-.2 0-.4-.2-.5-.3l-1-2.2h.5l2 .8c.6.2 1 .6 1.2 1.3.2.5.5 1 .7 1.8v1h-.2c-.2-.2 0 0 0 0zm-35-11.6c-.3-.6-.6-1-.6-1.5 0-.7-.4-1.2-.8-1.7l-.8-1.2c-.3-.5 0-1 .2-1.4.3-.4.8-.4 1 0 .5 1 1 2 1.3 3 .3.6.2 1.3.2 2 0 .3-.3.4-.5.8-.2-.7.2-.4 0 0zm71.8 15.7c-.4 0-.7.2-1 .5-.6.6-1.3.6-2 .6h-2c-.3 0-.5-.2-.6-.5 0-.4 0-.6.5-.7.2 0 .4 0 .5-.3.5-.5 1-.5 1.8-.3.7.3 1.5.5 2.3.3.5 0 .6 0 .6.4-.3 0 0-.4 0 0zm-59.3-11.3c.6 0 1 0 1.3.5l.5 1 1 1v.3l1 2.3c-.4 0-.7-.2-1-.5-.2-.4-.6-.7-1-1-1.3-1-1.5-2-1.7-3.6.7-.2 0 .2 0 0zm-17.5-14.7c1 0 1.3.4 1.6 1 .2.5 1.8 4.3 0 3.5-.2 0-.5-.4-.7-.7-.2-.3-.4-.7-.4-1-.2-1-.2-1.8-.5-2.8.8 0 .3 1 0 0zm14.4 22.7v-.6c0-1 .7-1.5 1.8-1.3.4 0 .7.2 1 .3.6.2.7.4.5 1-.3.5-.7 1-1.5.8-.6 0-1.2.2-1.8 0 0-.3.6.2 0 0zm19.2-1c1-.8 3-.2 3.5 1.6-.2.3-.5.3-.8.3l-2.6-.6-.2-1.2c1-.8 0 .4 0 0zm11.8 2v-.7c1-.7 2.3-1.2 3.6-1.2v.2c.2 1.4 0 1.8-1.4 1.7h-2.2c0-.3.8 0 0 0zm12.2 3.4c-.8.2-1.5.3-2.2-.2l-1.3-.8c-.4-.2-.5-.5-.4-.8.5-.2 1 0 1.5 0 .5.3 1 .4 1.3.5.6.2 1 .7 1 1.4-.7.2 0-.6 0 0zm-45.7-16.4c2 .8 2.6 1.7 2.4 3-.5.2-1 0-1.3-.3-.5-.8-1-1.7-1-2.7 2 .8 0 1 0 0zm71-7l.4 2.4c0 .3-.2.7-.6.8h-.8c-.2-1 0-2 .5-2.8.2-.3.2-.3.8-.3 0 .7-.6 0 0 0z"/><path d="M-310.7 378.7c.5 0 1 0 1.5.2.2 0 .4 0 .5.2l1 2v.3c-.5.2-1 0-1-.3-.5-.7-1-1.2-1.7-1.7-.2 0-.2-.4-.3-.6v-.3c.5 0 0 0 0 0zm-30.2 3.5h3.3c.4 0 1 .2 1 .7.2.3 0 .5-.2.5-.8 0-1.8 0-2.7-.3l-1.2-1c1.3 0 .6.4 0 0zm-4.8-6.5c-2 .6-3.5.7-4 .3.8-.5 1.7-1 2.8-1h1c.2 0 .3.3.2.7-2 .6 0-.4 0 0zm67.3-1v-1.3l1.7-1c.2 0 .5 0 .7-.2.4 1.3-1.4 2.3-2.5 2.4 0-.4.7 0 0 0zm-7.4 13c0 .8-.3 1-.8 1-.8 0-1.5-.3-2.3-.6 0-.2 0-.4.2-.6.5-.2 1-.3 1.6 0l1.3.4c0 .7-.4 0 0 0zm-71.3-16.6c.3 0 .5 0 .7.2.6.6 1.6 1 2 2-1.5 0-2.5-.8-2.7-2 .3 0 .2 1.2 0 0zm34.2 2.2c-.8 0-1.3-.2-1.6-1l-.6-1c.4 0 .8 0 1 .3l.7.7c.3.2.6.5.4 1-.8 0 0-.5 0 0zm75.4-22.4v1c-.3.2-.4.5-.5.8-.2.4-.5.5-1 .4 0-.4-.2-1.3.2-1.5l1.2-.7c0 .4-.4.2 0 0zm-47 23.4c0 .3 0 .5.2.7-.4.4-.7 1-1.5 1-.2-1 .2-1.5 1.3-1.8 0 .2-1 .3 0 0zm0 10.4c0 .3 0 .6-.4.6h-1.7v-.6h2c0 .3-.7 0 0 0zm18.3-14c0 1-.5 1.5-1.6 1.6.3-1 .7-1.3 1.7-1.5zm-41.4 12.8h2.2v.7h-2l-.2-.6zm32.3-5.4c0 1 0 1.3-.8 1.4-.3-1-.2-1.3.8-1.4zm23.2-2.2c-1 0-1.8-.5-2.7-1l2.4.4c.3 0 .4.2.4.6-1 0 0-.4 0 0zm-4.6-2.5c0-.6 0-1.2.7-1.6v.8c.2.7 0 .8-.8.8 0-.6 1 0 0 0zm-20.2-.2c0 .8 0 1.3-.5 1.6-.3 0-.5 0-.5-.5s.5-.5 1-1c0 .8-.5.5 0 0zm46-66c-.2 16.5-6 30.7-17.3 42.6-8.8 9.2-19.6 15-32 17.6-6 1.2-12 1.6-18 1-15-1.4-28-7.5-38.7-18.2-8.7-8.7-14.2-19.2-16.6-31.3-1-5-1.3-10-1-15.2 1-15 6.6-28 17-38.7 8.8-9.3 19.6-15.2 32.2-17.8 5.6-1.2 11.4-1.6 17-1 14.8 1 27.6 6.7 38.3 16.8 9 8.8 15 19.4 17.7 32 1 3.8 1.3 8.3 1.3 12.3zm-120.8.4c0 2.3.2 5 .6 7.7 1 6.4 2.8 12.5 5.6 18.2 9.2 18.2 27.6 31 49.5 32.2 5.5.3 11-.2 16.5-1.5 24.3-5.7 43.6-26.8 45.3-53.4.4-6 0-11.7-1.6-17.4-2.7-10.6-8-19.8-15.7-27.5-10-10-22.2-15.4-36.2-16.8-4.4-.5-8.8-.4-13.2.2-6.7 1-13.2 3-19.3 6.2-19.3 10-31.5 30-31.5 52z"/><path d="M-307.6 271l-.7 2.8c0 .3-.5.6-.8.8-.6.4-.7 1.2-.2 1.7s1 1 1.5 1.3c.4.3.7.8 1 1.2l.7 1c0 .2.3.3.5.4 1 .4 1.7 1 2.3 1.7.3.3.6.3 1 .2l1-.2c1 0 1.5-.5 1.8-1.4l1.2-3 .8-3c-.3 0-.6-.2-.8-.4-.3-.2-.5-.4-.5-1s-.3-1.3-.4-2c-.2-.5-.7-.5-1-.8v-1c.4-.7.6-1.2.4-2v-.4c0-.7.2-1.5.4-2.2.3-1.2 1-2.2 2.3-2.5l2.4-.5c1.4-.2 2.7 0 4 1l1 1 .5 1.6.3 2.7v.8c0 1 0 1.8-.6 2.5-.4.5-.2 1 0 1.5 1 1.3 1.8 2.6 2.3 4l.5 2.3c.2 1.6.4 3.2.4 4.7 0 1 0 2.2-.3 3.2-.2 1.5-.6 3-1 4.7-.4 1.2-.5 2.4-.3 3.6l1 6.8.3 3.5c.3 3 .2 6 .2 9v3.4l-.5 3.5-.8 5.3V332.7c-.2.8 0 1.6-.2 2.5l-.6 9c0 .2-.2.4-.5.5-.4.2-.5.6-.5 1 0 1 0 2.3-.2 3.4 0 .7-.2.8-1 1l-3 .5c-.2 0-.5 0-.8.3-1.5.8-3 1-4.8.8-1.3 0-2.4-.5-3.5-1-.7-.3-1-.8-.7-1.6l.2-.7c-1 0-1.8 0-2.6.3-1 .3-1.7.5-2.2 1.4-1.2.8-2.6 1-4 1l-3.3-.8-3.7-.8c-.5 0-.7-.3-1-.7l-.4-1.5c-.4-1.4 0-2.6.3-4 .2-.8 0-1.7-.2-2.6-.2-2-.8-4-1-6-.4-1.5-.6-3-.8-4.7 0-1 0-2 .3-3l.7-4.6c0-.4 0-.7-.5-1-.3 0-.5-.3-.8-.4-.6-.3-.8-.7-.7-1.2l.5-2.4v-.4c.3-3 .4-6 .4-9 .2-.8.2-1.4-.6-2-.2 0-.3-.4-.3-.7-.4-1.5-.5-3 0-4.5.3-.7.5-1.4 1-2 0-.4.4-.8.7-1 1.2-1.2 1.5-2.5 1.2-4-.2-.3-.3-.8-.4-1.3l-.5-3c0-.5-.3-1-.8-1-.2-.2-.3-.3-.5-.3-.4-.2-.7-.4-.6-1 0-.3-.2-.5-.6-.6-.2 0-.4 0-.6-.2-.2-.5 0-.8.3-1.2.8-1 1-2 1.5-3l.5-2.6c0-1 .7-1.7 1.2-2.5l1-1.4c.7-.6 1.3-1.2 1.8-2 .2-.2.2-.6 0-1l-.8-2.2v-1c0-.7.3-1.6 0-2.4 0-.8 0-1.5.5-2 .6-1 1.3-2 2.3-2.8l.4-.2 2.6-.5c1 0 1.8 0 2.7.6.3.3.7.4 1 .5 1 .2 1.3 1 1.5 1.6.2.7.2 1.3 0 2-.2.3-.2.6-.2 1-.4 1 0 1.8.4 2.7 0 1 0 1-.6 1.3-.2 1 .6-.4 0 0zm16.2 55.6v-1.8-.7l-.3-2.8v-.4c-.2 0-.2.2-.2.3l.4 3.5.2.4v1.6c0 .8 0 1.5.2 2.3v1.2c0 2.7.3 5.5 0 8.2v.8c.3 0 .4-.3.4-.4 0-1.7.2-3.5 0-5.2 0-1.4 0-2.7-.2-4 0-.3 0-.5-.2-.7v-2.2l-.2-.2c0-.6 0 0 0 0zm-22.8-63.3c.5 0 1-.3 1.5 0-.4.4-.8.8-1.3 1-.2.3-.7.5-.8.4-.4-.2-.6 0-.8 0l-.5.3c-.5-.2-.7 0-.8.3l-.8 1.3c-.2.4-.2.8 0 1.2.8-.7 1-1.8 1.7-2.4 0 .5-.4 1-.6 1.5-.3.6-.4 1-.2 1.5 0-.3.2-.5.4-.7l.8-1.6c.4-.7 1-1 2-1l-1 .8-.8.8c-.2.3-.5.5-.3 1 .5-.4.4-1.2 1-1.2l-.2.6c0 .6-.6 1-.5 1.7v2.3c.3 0 .6-.2.8-.3l-.2-1v-1.2c0-1.7 1.5 0 1.6.4h.2l.3-.7c.2-1 .6-2 1-2.8.4-1 1.8-1.2 2.6-.5l.3.3.3-1.2-.3-.3c-1-.4-2-.8-3-1-.7-.3-1.6-.3-2.2.3-1 0-1.5.2-1.5 1 .4-.4 1-.7 1.5-1 .5 0-.5.3 0 0zm14.6 32l1.3.2c.7 0 .8 0 .8.8 0 2 .2 3.7.4 5.6 0 .8 0 1.8.2 2.7l.7 4.2c.2 1.6.7 3.2 1.4 4.7.5 1.3 1.2 2.5 2 3.7 1 2 2.4 4 3.8 6l.6 1c.2-.4.3-.6.3-1l.4-2.3.3-4c0-1.6 0-3.3.2-5 0 0 0-.3-.2-.5l-.2-1.4c0-1.4 0-2.8-.2-4.3 0-1.6-.4-3.2-.6-4.8 0-.4 0-.7-.2-1v.8l.2 2.5v11.2l-.2 2.8v4.7c0 .2.2.5-.2.7l-.2-.7c0-.8 0-1.5-.2-2.3-.3-2.6-.2-5-.2-7.7v-9.6-4.7s.3 0 .5-.2c0-.2 0-.4-.2-.5-.5 0-.8.3-1 1 0 1.3 0 2.7-.3 4-.2 0-.2-.2-.2-.3v-4.2c.2-.8 0-1.6 0-2.6l-1.2.5c.2-.5.6-1 1-1.3l-1.5.7v-.3l1-1.4c-.6.4-1 1-2 1 .2-.7 1-1 1-1.4 0-.2 0-.2-.3-.3l.8-1.2 1.8-2.7c.3-.3.5-.6.6-1 .4-1.7.4-3.6 0-5.4-.2-1.6-.4-3.2-1.3-4.6.7 0 1 .4 1.2 1.3.6 1.6 1 3.3 1 5v1.8c.7-.8 1-1.5 1-2.4l-.2-2.8c0-1.4-.4-2.7-1-4-.2-.6-.5-1.4-1-2-.8-.5-1.5-.3-2.2.4l-2 1c-.5.2-1 .3-1.4.6l-.8 1-1 1.5c-.3.3-.5.6-.3 1h.2c.8-1 1.5-2.2 2.6-3 .7-.3 1.4-.7 2.3-.4l-.8.4c-1 .4-1.8 1-2.4 1.8-.6 1-1.3 2-2 2.8 0 .3-.2.5-.5.7-1 1-2 1.8-3.2 2.5-.6.7-.8 1.4-.7 2.2-.7 0-.6-.7-1-1-.4.4 0 1-.3 1.5-.7 0-.8-.2-.8-.8v-1l-3.7-.2-2-.3c-.8 0-1 0-1.2.8v1.4c0 .6.4 1 1 1 2 1 4 1.2 6 1.5 0 0 .3 0 .5-.2-.2-.4-.7-.4-.6-1l.6.3c1.3.8 2.6 1 4 0 0 0 .2 0 .3-.2 1.3-.8 2.6-2 3.8-3l1.8-1.5c.3-.2.5-.5.5-1l-3 1.7s-2 1-3 1.2c0-.2 0-.3.3-.4 2-1.2 4-2.5 5.8-4 1-.7 1.5-1.6 1.8-2.7l.2-.3c.3.5.3 1 .8 1.3 0 .7 0 1.3-.3 1.8-.5.8-1 1.8-1.7 2.4-.8.7-1.2 1.8-2 2.6l-1.3 1.2v-.4l-3 1.6c.5.3.8.7 1 1.2 0 .2 0 .4-.2.6-.2.7-.7.6-1.3-.2v-1c-.2 0-.4.2-.5.3-.6.3-.8.7-.7 1.4v2.2c.5.5.6 1 .6 1.8.6 0 0-.7 0 0zm-5.8 4v.8l1 5.2v2.5c.5 4.3.2 8.5.3 12.8 0 .3-.2.5-.4.7-.5.3-.7 1-.7 1.4-.2 1.3-.4 2.5-.8 3.8l-.7 3c-.3 1.2-.4 2.5-1 3.8 0 .6-.3 1.2-.4 1.8-.2 2-.6 3.7-1 5.5-.4 1 0 2 .2 3l.3.2c.6.5 1.2 1 2 1.3.6.3 1.2.5 2 .3l1.8-.3c.8 0 1.4-.3 1.8-1 .3-.5.6-.8.7-1.2.4-1.6.4-3.3.3-5l-.6-8.7c-.2-2.6-.4-5.2 0-8v-16.4c0-1 0-1.8.2-2.8 0-1 0-1.8-.2-2.7-1 .4-2 .6-3 .8-.3 0-.5-.3-.8-.4-.4-.2-.7-.3-1 0 0 .2.3-.3 0 0zm-1.8.3c.2 2.8-.4 5.5-1.8 8 .5-1.3.5-2.5.8-3.6.5-1.5.4-3 .4-4.5-.7-.3-.7-.3-.8.4l-.3 2.5c0 .4 0 .8-.2 1-.4.5-.4 1-.5 1.4-.3 1.6-.5 3.2-1 5v.5l1-2.2c0 1.2-2 7.6-2.5 8.4 0-1 .8-1.7.3-2.7-.3.2 0 1-.7 1l1-3.8s.8-2.3.8-3.6c-.3.3-.4.6-.6 1 0-2 .7-4 .3-6-.7.8-.4 1.8-1 2.6-.2-.7.3-1.3-.3-1.8-.2 0-.4 0-.5.2-1.2.3-2.4.3-3.4-.3-1.2-.8-1-.5-1.7.6-.6.8-1 1.7-2 2.2-.7.5-1 1.2-1 2v4.2l-.7 6.8c0 .4 0 1 .2 1.2.4 0 .5 0 .5-.4 0-2 .4-3.7 1-5.5 0 1.7-.5 3.4 0 5.3.4-.5.4-1 .5-1.5l.6-2.7c0 1.2 0 2.4-.2 3.6v2h1.2c.4-1.6.3-3.3.7-5 .2 1.8-.2 3.6.2 5.3.7 0 .7 0 .8-.6 0-1.2 0-2.3.2-3.3v-.5h.3c0 .6.3 1 .2 1.7-.2.8 0 1.6 0 2.5.7.4.8 0 1-.7l.3-2.7v-.5h.3c.3 1.4.2 2.7.4 4 .5 0 .5 0 .6-.2v-1.5c0-.6 0-1.2.2-1.7v-.3c.5.6.2 1.3.3 2v2c.7 0 1.2.2 1.8 0v-1c0-.3-.3-.4-.4-.6-.2 0-.2-.2-.2-.4s0-.4-.2-.7l-.4.8h-.2l1.3-6c.3-1.7 1-3.2 1.6-4.7 0 0 0-.2.4-.4l-1.4 5.6v.6h.2l1-2-1 5.8v1.8l.2.4c.8-1.3 1-2.8.7-4.5l.3-.3h.2l.2 4.8c.4 0 .5 0 .5-.3v-1.8c0-.5.2-1 .5-1.4.2 1 0 1.8.3 2.7.6-1 .3-2.3.7-3.3l.6 3 .4.3V313c0-2.3-.3-4.5-.4-6.7 0-1.8-.4-3.6-.8-5.3 0-.4-.2-.7-.3-1 0-.5 0-.5-.4-.4.2 1.4.3 0 0 0zm10 46.8c.5-.4 1.3-1.3 1.4-1.7.3-1.2.7-2.4.7-3.7 0-3-.2-6-.6-9l-1-7.7c-.3-3.3-.7-6.5-1.2-9.8l-1-7.5-.5-5.4c0-.4 0-.8-.2-1.2 0 .2-.2.2-.2.2 0 1-.3 2 0 3v.8l-.2.8c.3 5-.2 10 0 15 0 4 0 7.8.3 11.6 0 .7 0 1.4.2 2l.8 6.3c0 1 .2 2 0 3-.2 0-.4-.2-.5-.3-.5.3-.5.7-.4 1l1.3 1.2c.5.3.7.8 1 1.4.6-.4-.3-.6 0 0zm4.7-.5l.2-.6c.2-1.5.5-3 .6-4.6v-6c0-1.6 0-3.3-.2-5l-.2-3.3-.4-7c0-.4-.2-.8-.3-1l-1-2c-1-2-1.7-4-2.2-6l-.6-2.5-.5-3.7-.8-7.8c-.6-.2-1 0-1.3.3 0 .2 0 .6.2.7.4 0 .3.5.3.8l.5 5c0 1 .2 2 .4 3l.7 4.4 1 8.3c0 1.3.2 2.6.4 3.8l1 6c.2 2.2.6 4.4.6 6.7v4.7c0 .8 0 .8.8 1 .6 0 .6.2.5.8-1-.2-1.2 0-1.4.5-.3.5-.5 1-.6 1.6 0 .3 0 .6.2.7.3.4 1 .8 2 1.2 0-.3-1-.5 0 0zm-22.5-2.3c-.6-1.8-.6-3.7-.6-5.6v-2.4l.4-6.3V328h-.6v-.4l.2-.3c.8-1 1.2-2.3 1.4-3.7 0-.8 0-1-1-1h-2.5c-.4 0-.5 0-.6.4 0 .7-.2 1.3-.3 2l-.2 1c0 2-.4 3.7-.2 5.5v1l-.5-.5c-.2-.6-.2-1 0-1.7v-1.5-1.8c0-.4 0-.8.2-1.3-1 .2-.5 1-.8 1.3-.3.3 0 .5.3.7l-.6 1.5c0 .3-.2.6 0 .8v1.5l.4.2V333.3s.5 1 .4 1.5l.8.6.3.3s-.3 0-.4.2v.4l.3.3c.5.3.6.8 0 1.4-.2.4-.2 1.2.2 1.5.3 0 .7.4.7.7v1.7c-.2.4-.3.6 0 1v3.1c.7.6 1.5 1 2.4 1 .4 0 .8 0 1 .2 1.7.5 3.3.7 5 .6h.3c-1.2-1-2.5-.4-3.6-.7v-.2l.7-.3c0-.7-.6-1.4-1.3-1.5h-1c-.5-.6-1-.3-1.5-.3-.2 0-.5 0-.7.2 0-.3.3-.6.6-1h-1l1-.7v-.2c0 .2.5.2 1 .2-.6-2-.5 0 0 0zm5-5c-.3-.2-.6-.2-1-.2v-.2l1.5-1c0-.4-.2-.7-.4-1 0 0-.4.4-.6 0l1.2-1.4c-.4-.2-.6-.2-1-.2l.4-.5c1-1 1.7-2.2 2-3.6.3-.8.4-1.7.6-2.6 0-.4.2-1-.4-1.3 1-.4 1.3-1.3 1.5-2.2.2-1 0-1.8 0-2.8l-3.4.5s-.3 0-.3.2c0 .5-.6.4-1 .6.5.2.2.8.7 1l.5.5v.6c0 .5.7.3.7 1h-1.4c0 .8.8 1 1.2 1.5-1.2.3-1.6-.6-2.2-1.3l-.4.7-.5 1.8c0 .3 0 .8-.3 1-.3.4-.3.8-.2 1.3 0 .5.3 1 0 1.3-.2 0 0 .3 0 .5 0 .3 0 .5.2.8v.2h-.6l.5 1.5c-.3.2-.4.4-.2.7V338.3c-.2.3 0 1 0 1 .8.5 1.5.8 2.3.6.6-.3 1-.5.8-1.4-.2 0 .2 1 0 0zm-11.6-52.4l.3-.8 1-4.3c0-.7.4-1.4.7-2 0-.4.4-.7 1-.8l-.5.8c-.7 1-1 2-1 3 0 1.6-1 3-1.2 4.6 0 .6 0 .7.8.6l.3-1.6c0-.5.2-1 .4-1.7.3.5.2.8 0 1v2.5c.3.3.5.3.6 0 .2-.8.2-1.5.2-2.3 0-.8.3-1.7.4-2.5 0-.2 0-.6.3-.7.4-.5 1-.8 1.6-.7l1.8.2h.7c.7-.2.8-.2 1.2.4.4.4.7.8 1.4.8.4-.8-.5-1.6-.2-2.5l.3.4.3.3c0-1-.4-1.7-.8-2.5l.8.6c-.2-1.3-2.2-3.3-3.4-3.4.5.8 1.7 1.2 1.8 2.4-1 0-2-2.3-3-2.5v1c-.6-.3-.5-1-1.2-1.3v1.2h-.2l-.5-.8c-.6.2-.3.8-.7 1-.4-.3-.6-.3-1 0l-1.2 1.5c-.5.7-.8 1.4-1 2.2-.2 1.3-.3 2.6-.8 3.7-.6.5-.8 1.2-.6 2 .7.4 1 .4 1.2.3 0-.2-.3 0 0 0zm29-15.4c-.8 0-1.6-.2-2.3-.4 0-.7 0-1.3-.3-2l-.2-.6c.2-.7-.2-1.2-.3-1.8 0-.4-.2-.8 0-1.2 1-.4 1-.5 1.6-.2l-1.3.4v.2l1 .5c-.4.5-.5 1.3-.2 2 .2.2.3.6.4 1l.2.5c0-.4.3-.7.4-1 .3 0 .5 0 1 .3l-.7.5c-.4.2-.4.5-.3.8.6.5.8-.5 1.3 0v.2c0 .2 0 .5.3.5.2 0 .4-.2.5-.3l.3-.7c0 .3.2.6.3.7l1-.5-.3-.5c-.4 0-.7 0-1-.2l-2-1.2c.4-.6 1-.2 1.4-.4.3-.5 0-1 .4-1.4l.6.3c0-.8-.2-1.4-.4-2.2-.6 0-1.2-.3-1.8-.4h-.4c-1 0-2.2.3-3 1-.4.2-.6 0-.8-.2 0 0 0-.3.3-.4.6-.4 1.3-1 2-1h2c-.3 0-.4-.2-.5-.3-1.4 0-2.8 0-4 1l-.3.2c0 .6-.5 1-.8 1.6-.3.5-.3 1.2-.2 1.8 1 0 1 0 1.4.3-.2 0-.4.3-.6.4l.5.5c-.6.2-.6.6-.6 1 0 .3-.2.6-.3.7-.4.3-.3.5-.2.8 1 0 1 0 1 .7h-.8v1c0 .3 0 .5.4.6.4 0 .7 0 1-.3 0-.2.3-.4.5-.5 1-.4 2-.8 3-1 1-.6 1-.7 1-1-.7-.2 0 .3 0 0zm-22 18.2c.3 1 1 2 1.8 2.7v.3l-1.2-.8-1.5-1.4c-.6-.4-1-.8-2-.7 0 .8.8 1.4.5 2.3.3 0 .5 0 .7.2v.5h.6v.8c0 .8.4 1.4 1 2l.2-1h.5c1 .8 2 1 3 .8l.6.2-1.2.6v.2h3.2l-1 .2c-.4 0-.8 0-1.3.2-.7 0-.7.2-.6 1h.4c0 .7 3 1 3 1 .4 0 .7-.2 1-.5l.8-2.2c.2-.6 0-1-.5-1l-2-1.2c-.4-.2-.8-.4-1.3-.3l-.2.5h-1c.2-1.4-.2-2.7-1-4l-.6-.2h-2c.3.6.8 0 0 0zm1-19.6l-.3-.6c-.3-.5-.6-.4-.7.3l1 1.6c.6 0 .8.5 1 1 .6 1 2 1.8 3.4 1.6.2-.4.3-1 .2-1.4l-1-.3c0-.8.3-1.4.7-2 .2.2.4.4.6.4h.6v-.6l-.8-1.4c-.6.2-1 1-1.8.2v-.5h-.4c.6-1 1.4-.8 2.2-.6V266c-.5 0-.8-.3-1-.6-.5-.5-1.2-.5-1.6-.2l-.5.7-.8 2.4c0 .6-.2 1-1 1.2 0-.3.8 0 0 0zm16.4 79.3l-1-.3c-.6-.2-1.3 0-2 .2-.2 0-.5 0-.4.4 0 .2.3.3.5.4h.3c1.2.4 2.4.2 3.6.2.7 0 1.5-.4 2.2-.7.6-.3.8-.7.7-1.4l-.2-1c0-.7-.4-1.3-1.2-1.4-.2 0-.4 0-.6-.2l-1.5 1.6c-.4.4-.3.6 0 1 .3 0 .5.3.8.4v.2l-1.3-.3c-.3.2-.2.4-.2.6zm-18.5-65.2c-.5.4-1.2.2-1.8.7.6 0 1 .2 1.5.3.3.6-.2.8-.6 1 1.5.5 3 .3 4.3.3h.3c.2-.6.6-1 .4-1.8 0-.5-.4-1-.5-1l-1.5-.8c-1.3-.6-2.8-1.3-4-.3l1.5.3c.6.2.6.4 0 .6l-1 .2c-.2 0-.3 0-.4.3.7.3 1.2 0 1.7.3-.5.4-.5-.4 0 0zm7.2 63.7v.2l.2.2c1 .4 2 .2 2.8 0 .5 0 .7-.4.6-1l-3.2-1v-.4c-.2-.2-.5-.3-.5-.5 0-.3-.4-.5-.7-.8l-1-1c-.2-.2-.5 0-.8-.4 0-.2-.6 0-1 0v.7h-2c-.2.6 0 1 .5 1.4l.7.4c1.5 1 1.5 1 3.2 1.3 1.5.2 3 .7 4.4.5 0 .3 0 .4-.3.5-.7.2-1.4.2-2 0-.2 0-.5 0-.8-.2zm-13-43c.3-.4.7-.6 1-.8l.5-.7 1-2 .4-2.2c0-.4 0-.7-.4-.8s-.7 0-1 .3l-.7 1.2-.8 1.5c-.7 1.4-.6 2.8-.3 4.3.5 0 1 .2 1.6-.2-1.4 0-1.4 0-1.4-.6.4-.3 0 .5 0 0zm7 33.4h.2c.3-1 .2-2 .2-3 0-.8-.2-1.8 0-2.7 0-1.8.5-3.5 1.2-5 .5-1.3 1-2.6.7-4-1-.3-1-.2-1.2.6v.3l-.8 2.8-.4 2c-.3 2-.3 3.6-.3 5.4 0 1 0 2.3.2 3.5 0 0 0-1.3 0 0zm9.2-43.6c-.4.4-.6 1.4-.4 2.3.5 0 .8.2 1 .6 0 0 .3 0 .4.2.6.6 1.5.6 2.2.8v-1h.5v-1h.4c0-.6-.4-1-1-1l-.3-.3c-.7 0-1.3.2-1.6.7-.2 0-.6 0-.8-.2l-.5-1c-.4.3.2.2 0 0zm5.8 51.4l-1.2-.3v.2l.4 1-.8-.3c-1-.3-1.7-.2-2.5 0-.6 0-.7.3-.5 1 0 .3.4.3.6.3h2.8c.8 0 1.7.2 2.5-.2 0-.8-.2-1.5-.5-2.2-.4-.7-.5-.7-1.2-.5-.4.4.7.4.2 1zm-7.3-61c0-.3 0-.7.3-.8.4-.2.3-.5.3-.7v-1.5c-.2-1-.6-1.7-1.3-2.4-.2-.4-.5-.8-1-.8-.4.6 0 1 0 1.7h.3c.4.3 1 .5 1 .8.5.8.6 1.6.6 2.3-.4 0-.5 0-.6-.4 0-.5-.2-1-.3-1.4 0-.3-.2-.6-.4-.8-.3-.3-.6-.3-.7.2 0 1.2 0 2.3.3 3.6.5-.3 1 .2 1.6.2 0-.3-.6 0 0 0zm1.8 0h3c.8 0 1.6-.6 2.2-1.4l.2-.6c-.7 0-1.3 0-2 .2l-1.4 1c-1-1.6-1.3-1.8-2.3-2 .5 1 .6 2 .3 3 1 0 .3-1 0 0zm-1.7 5.5c-1-.2-1.7-.6-2.6-.6-.2 1-.7 1.6-.5 2.5l.7.4c1 .5 1.3.5 1.8-.7v-.2c.3 0 .5 0 .7-.2 0-.4 0-.8-.2-1.3-.8-.2 0 .5 0 0zm16.3 50.2v.2l-.5 4 .3.6c.6-.5.5-1.2 1-1.7l.2.4c.6-.8.4-1.7.3-2.6l-.3.3v-1.3h-1zm-24 8.8h.2c.3-.2.5-.2.8 0 .5.5 1 1 1.8 1l2-.2c.6 0 1-.2 1.5-.3v-.4s0-.2-.3-.3h-.5c-.8.3-1.6.4-2.4.2-.8 0-1.6-.3-2.4-.4-.3 0-.6 0-1-.2v.7zm24.7-20.2c0-1.2.7-2.3.4-3.5-.3 0-.5 0-.6.2 0 .8-.4 1.5-.4 2.3 0 1 0 1.8.2 2.7v1.2l.2.5c.2 0 .3 0 .3-.2l.8-3.2c-.3.2-.5.2-.7 0zm-23.4-30.8h-.8c-.5 0-.8 0-1 .6l-.4.5c0-.5 0-1-.2-1.2 0 0-.3 0-.4.2l-.4 1.4v.3c.5.4 2.4.3 2.7-.2.3-.3.5-1 .4-1.6-.4 0 0 .7 0 0zm12.5-5c-.2 0-.3-.2-.3 0h-1.4c-1 0-1.6.2-2.2 1v.6c.3 0 .4 0 .4-.2.2-.4.5-.5 1-.5.6 0 2 .7 2.2 1.3 0 .2 0 .5.6.5l-.3-2.7s0 1 0 0zm-5-.2l1.3-.5c.7-.4 1.3-.6 2-.7.4 0 .6 0 .8-.2l.4-.4-4.5-.2v2c.5-.2 0-.7 0 0zm-5 12c.2 0 .2 0 .3.2l.7-1.5c.3-.2.3-.5.3-.8 0-1.2 0-2.2-.2-3.3 0-.4-.3-.4-.6-.3l-.4 5.7s0-2 0 0zm-6.6-35.6c-.6 0-.7.3-.7.6l.3 1.3.6 1.5h1c0-.4.6-.8 0-1.3l-.6.3c-.2-.4-.2-.8-.5-1 0-.4-.2-.8 0-1.4-.6 0 0 .3 0 0zm7.5 9.5c-.4 1.4-.3 3-1 4.4v.5c.6 0 .7-.4.8-.7.4-1.5.5-3 .2-4.4-.5 1.4.3 1.4 0 0zm-2.7-5c.2-.8-.5-1-.7-1.3 0-.4-.4-.8-.7-1l-.8 1c.5 1 1.5 1 2.3 1.2.2-.8-.8-.4 0 0zm2 67.4c-1.3-.3-2.4-.4-3.4.2v1c.5 0 .8-.2 1.2-.4l-.6-.5c1-.3 1-.3 1.5.3 1 0 1 0 1.2-.6zm17-66.3l2.7-1.5c.3-.7 0-1-.7-.7l-2 2v.3c1-.5 0-.2 0 0zm-20-.6c.5.5 1.3.5 1.4 1.3-.5 0-1-.2-1.4-.4 0 .2 0 .3.2.4l1 .7c.6.4.8.2.7-.5l-.5-1.4c-.4 0-1 0-1.4-.2.4.6.5 0 0 0zm20-2c-1 0-2 .3-2.8.8 0 0-.2.3 0 .5 0 .3.4.3.7.2.6-.6 1.3-1 2-1.5-1 0-.7.5 0 0zm-22.5 15.8c0-1.5 0-1.7-1-1.5v1.5h1c0-1.5-.4 0 0 0zm-1.3 5.6c.2-1-.5-1.4-.7-2l-.5-.3c-.3.6-.2 1 0 1.7.6 0 1 .2 1.2.6.2-.8-.3-.4 0 0zm4.5 8.4l-.6-1.4c-.2-.2-.4-.4-.5-.3-.2 0-.3.2-.4.4-.2.8.3 1.4 1.5 1.2-.2-.5-1.2.2 0 0zm17-27c-1 0-1.5.7-1.2 1.7l1-.6V275c-1 .3 0 .6 0 0zm5.4 63.8c.3-1 .6-2 .7-3-1 .8-1 2-.8 3zm-8-70.4c-.5-.2-.7 0-.8.2-.3.5-.7 1-.5 1.5.4 0 .7 0 1-.2l.2-1.4c-.5-.2 0 .5 0 0zm7.8 78c-1 0-.8 1-1.3 1.3v.4c1.5-.4 1.5-.2 1.3-1.7zm-.4-24.4h-.2v1.5c0 .5 0 1 .2 1.5.4-1 .6-2 0-3 0 0 .6 1 0 0zm-27.6-36v1.5c.2.4.4.4.8.2v-1c0-.5 0-.5-.8-.7 0 .5.8.2 0 0zm2.6 11h1.3c0-.3.2-.7-.2-1-.5 0-.7 0-1 1 .3 0 .3-1 0 0zm-1-27c.5 0 .5 0 .6-.5s.3-.8 0-1.2c-.5.6-.7 1-.6 1.8.5-.2 0-.7 0 0zm2 30.7c-.6.2-.6.6-.3 1.2.2.3.4.6.8.4l-.5-1.7s.2.5 0 0zm18-23l-.2-.2c-.2 0-.4 0-.5.2-.3.4-.6.8-.4 1.4.4-.5.8-1 1-1.5 0-.2-.2.5 0 0zm-19 23c-.7.6-.7 1 0 1.4V301c-.7.2 0 .5 0 0zm4.7-1.5c0-.8 0-1-.5-1-.4 0-.5.2-.3.6.2.3.5.4 1 .5-.2-.7-.5 0 0 0zm.2-23.2c-.4.7-.3 1 .4 1.4 0-.5 0-1-.4-1.4zm-5 72c0 .3 0 .6.3.7.2 0 .3-.2.3-.3 0-.5-.2-.6-.6-.5zm21.8-73.5c-.7 0-.7 0-.8.5.4 0 .7 0 .8-.5zm2 72c-.5 0-.5 0-.3 1 .4-.3.4-.6.4-1zm-19-57.7c-.4.8-.4 1 0 1 .2-.4.2-.6 0-1-.3.4.2.4 0 0zm-6.6 6.5c0 .3 0 .4.2.7.2 0 .4-.2.7-.5-.4 0-.7 0-1-.2 0 0 .3 0 0 0zm2.6-8.4c0 .5 0 .5.6.3-.2-.2-.2-.2-.6-.2zm-3.7 3.5h.2c0-.4-.2-.7-.4-1v.2l.3.8s0-.3 0 0zM-289 338c.4-.4.4-.7.3-1-.4.2-.4.6-.2 1zm-4.7-64.2c-.6 0-.6 0-1 .4.4 0 .7-.2 1-.4zm-23.7 74c-.4.2-.4.5 0 1v-1zm-2-56.6h.3l-.4-.8h-.2c0 .4 0 .7.3.8 0 0-.4 0 0 0zm7.7-3c0-.4 0-.4-.2-.5l.3.6zm2.8-17c0-.2-.3-.3-.5.2h.6c0-.2 0 0 0 0zm-7.4 77.3v-.4l-.2.3.2.2zm-1-48.8c.2-.4 0-.5 0-.6 0 0-.2 0-.3.2 0 0 0 .3.2.5.3-.3 0-.2 0 0zm-1.2 45.5h-.2l.2 1v-1zm2.8-74.5c-.3 0-.3.3-.2.5.2-.2.2-.4.2-.5-.3 0 0 0 0 0zm15.2-19.3h1l-1.8 7h-1.2l-1.5-5.7-1.5 5.7h-1.2l-2-7h1l1.6 6 1.4-6h1l1.5 5.7c.6-1.7 1-3.7 1.4-5.6zM-301 363h-1l-2.2-6.8h1c.6 2 1 3.8 1.7 5.7.4-2 .8-4 1-6h1c.7 1.8 1.3 3.7 1.8 5.6l1-5.8h1l-1.4 7c-.5 0-.8 0-1.2.2l-1.7-5.7c-.2 2-.5 3.8-1 5.7zm-32.4-93.8l-.7.5-4.5-5.7 1-.8c2 1 3.8 2 5.6 3.2h.2c-1-1.6-2.3-3-3.5-4.7l.7-.5 4.4 5.7-1 .7-5.8-3.3 3.6 4.8zm59-1.7l-.8-.6 4.7-5.6 1 .8c-.5 2-1 4-1.8 6l4-4.4.6.6-4.7 5.5-1-1c.5-2 1-4 1.7-6-1.2 1.4-2.4 3-3.8 4.5zm-46-13.2l2.6-.7c1-.2 1.8 0 2.2 1 .5 1.3.8 2.5 1 3.7.3 1 0 1.5-1 2h-.5l-2.2.7c-1-2.2-1.5-4.4-2.3-6.7zm2.8 5.7c.5 0 .8-.2 1.2-.3.8-.3 1-.6 1-1.5l-1-3c-.2-.5-.6-.8-1-.8-.7 0-1.3.2-2 .5.7 1.6 1.2 3.2 1.8 5zm47.3 11l5.3-5.2c.8.8 1.6 1.4 2.2 2.3.3.6.3 1 0 1.6 0 .2-.2.5-.4.6l-2.5 2.4c-1 .7-1.8.7-2.7 0l-1.4-1.3c0-.2-.3-.2-.5-.4zm5.5-4l-4 4 1 1c.3.3.8.3 1.3 0 1-.7 2-1.6 2.7-2.5.4-.4.3-1 0-1.3-.3-.5-.6-.8-1-1zm-76.8 80.8l4.7-5.4c.8.7 1.5 1.2 2 2 .7.5.8 1.2.3 2-.7 1.2-1.6 2.2-2.7 3-.7.7-1.5.7-2.2 0l-2-1.6zm4.8-4l-3.6 4 .6.5.4.3c.6.4 1 .5 1.4 0l2.3-2.6c.4-.5.3-1 0-1.5l-1-.8zm21.5 17.8l1.8-7 2.6 1c1 .2 1.3.8 1.2 1.6 0 1.4-.4 2.8-1 4-.5 1-1.2 1.2-2 1-.8 0-1.6-.3-2.5-.6zm2.5-5.7l-1.4 5c.4 0 .7.2 1 .3 1 .2 1.3 0 1.6-.8l.6-2c.4-2 .2-2.3-1.7-2.7zm-13 2.3l2.7-6.6 2.5 1c.7.5 1 1.2.8 2-.3 1.2-.8 2.5-1.5 3.6-.5 1-1.3 1-2.2.8-.8 0-1.6-.4-2.4-.7zm1.2-.4c.4 0 .8.2 1.2.4.7.2 1.2 0 1.5-.6.6-1 1-2 1.4-3 .2-.7 0-1-.6-1.4l-1.2-.5-.2.3c-.8 1.4-1.4 3-2 4.6zm49-91.6l-1.4-.5v-.7c.2 0 .3.2.4.4l.4-1.4-2.2-1.3-1.4 1.2-1-.5 6-5c.2.3.6.5 1 .7l-2 7zm-.4-3l1-3.2h-.2c-.4.2-.8.6-1.2 1l-1.3 1 1.7 1zm-4 86.6l1.2-.6 5.2 5.2-1 .6-1-1.3c-1 .3-1.6.7-2.3 1l.4 1.8c-.3 0-.5.3-.8.5-.6-2.4-1-4.8-1.5-7.3zm3.6 3.3l-2.3-2.3c0 1 .3 2.2.5 3.3l1.8-1zm-7.2-96.6l-1-.3.2-.4c0-.6 0-1-.6-1-.5-.3-1-.3-1.4 0-.3.4-.3 1 0 1.4l1 1.2c0 .3.3.5.5.8 1 1.2 0 3-1.4 2.8-.5 0-1-.2-1.5-.4-1-.5-1.2-1.3-.6-2.5l1 .3-.2.4c0 .7 0 1 .5 1.2.5.3 1.2.2 1.5-.2.4-.4.4-.8 0-1.4l-.7-1c-.2-.2-.5-.5-.7-1-.7-1 0-2.5 1.5-2.6.6 0 1 0 1.6.3.6.6 1 1.3.4 2.4zm-60 12l.6-.6.6.7 3 2.7c0 .2.4.4.6.6.6.3 1.3.2 1.7-.4.3-.5.3-1-.2-1.6l-3.2-3-.7-.6.6-.7 1 1c.8.6 1.4 1.3 2 2l.8.6c1.2 1.4.8 3-.8 3.6h-1.6l-.6-.5-4-3.7zm18-12.4l3.4-1.4.4.6-2.5 1 1 2 2.3-1c0 .3.2.6.3.8l-2.4 1c.2.7.5 1.4 1 2.2l2.4-1 .4.7-3.4 1.4-3-6.4zm28-4.7l3.5.5v1l-2.8-.4-.3 2.2c.8 0 1.6.3 2.5.4v.8c-1 0-1.8-.2-2.7-.3 0 .8-.2 1.5-.4 2.3.8.3 1.8.2 2.6.5v.7l-3.8-.5c.4-2.4.8-4.7 1-7zM-294 356l.4 2.2 2.4-.5.2.8-2.4.5c0 .8.3 1.5.4 2.4l2.5-.5c0 .2 0 .4.2.6l-3.5.7-1.5-7c1.2 0 2.3-.4 3.4-.6 0 .3 0 .5.2.7-.7.3-1.5.4-2.4.6zm-23 4.7v.7l-3.5-1 2-6.8 3.4 1v.8l-2.6-.7-.6 2c.8.4 1.6.6 2.4.8 0 .2 0 .5-.2.7l-2.4-.7-.7 2.3 2.3 1zm-14-13.3l.8.6-2 5.8h.2l4.4-4c.3 0 .5.2 1 .4l-5.5 5-.8-.6c.6-2.5 1.2-4.8 2-7.2zm47.5 7.6l2-1 .5.8-2 1 1.2 3c-.3 0-.5.2-.8.3l-3-6.3c1-.5 2-1 3.2-1.4 0 .3.2.5.4.7l-2.2 1c0 .7.3 1.3.7 2zm1.2-92l-1-.4 2.8-5.7-1.6-1 .3-.6 4 1.8c0 .3 0 .4-.2.7l-1.6-.8c-1 2-1.8 4-2.8 5.8zm-43 1l-1 .4-3-5.6-1.6.8c0-.2-.2-.4-.4-.6l4-2c0 .2.3.4.4.6l-1.5 1 3 5.4zm58.6 84.6l.5.7-2.8 2-4-5.8.8-.6 3.6 5c.6-.5 1.2-1 2-1.4zm-10-.7l1-.6c1 1.7 2 3.5 3.3 5.2l2-1.3.4.7-2.8 1.8-4-6zm-51.8-82.4l-1 .5-4-5.7.8-.6 4.2 6zm-8 86.8l-.8-.6c1.4-2 2.8-3.7 4.3-5.6l.8.6c-1.3 2-2.7 3.7-4.2 5.6zm8.6 5l-1-.3 3-6.3c.4 0 .6.2 1 .4l-3 6.5z"/><path d="M-319.2 307c.2.8.2 5-.2 6 0 0-.2 0-.3.2-.3-.5-.3-1-.3-1.5 0-1.4.2-2.8.4-4.2 0-.2 0-.5.4-.5.3 1-.3 0 0 0zm-.3 26c.3 0 .6-.2.7.2 0 0 0 .3-.2.4-.4 0-.5-.3-.5-.6zm.6 2s-.2 0-.3-.2v-.5h.3l.2.4v.4zm.7 4.2v0zm7-1.6c-.5.4-.7.4-1.3 0 .3-.2.5-.3 1.2 0zm-1.5 1.3h.8c-.3.3-.5 0-.8 0zm6.2-43.3s0 .3-.2.4l-1.2 1h-1v-.3c.8-.4 1.5-.8 2.3-1z"/></svg>