<svg version="1.1" id="Layer_1" xmlns="http://www.w3.org/2000/svg" x="0px" y="0px" width="738px" height="206.6px" viewBox="0 0 738 206.6" xml:space="preserve"><g fill="#FFF"><path d="M89.1 7.9H57.7V.4H129v7.5H97.5v88.8h-8.4V7.9zM143.9.4h61v7.5h-52.8v35.6h51.8V51h-51.8v38.1H205v7.5h-61V.4zM287 72.9h-51.2l-9.7 23.7h-9.2L256.3.3h10.2l39.4 96.3h-9.2L287 72.9zm-48.6-7.5h46l-23.1-57-22.9 57zM401.3 11.2l-35.1 85.4H363l-35.2-85.4v85.4h-8.2V.4h12.3l32.8 79.8L397.3.4h12.4v96.3h-8.4V11.2zM28 166.3l-7.5 8.9v29.6H0v-96.3h20.5v43l34.1-43h25.3l-38.2 45.2 40.8 51.1H57.1L28 166.3zM90.5 108.6h68.1v17.6H111v20.9h46.6v17.6H111v22.4h47.6v17.7H90.5v-96.2zM195.7 140.2v64.7h-20.5v-96.3h21.1l44.6 62.3v-62.3h20.5v96.3h-19.8l-45.9-64.7zM299.4 126.6h-28.1v-18H348v18h-28v78.2h-20.6v-78.2zM357.8 108.6h20.8v57.1c0 13.4 7.4 22.7 22.4 22.7 14.7 0 22.1-9.2 22.1-22.7v-57.1h20.8v57.7c0 24-13.7 40.3-42.9 40.3-29.4 0-43.1-16.5-43.1-40.1v-57.9zM456.6 156.8c0-29.6 22.4-49.8 50.5-49.8 21.9 0 34.2 11.5 41 23.5l-17.6 8.7c-4-7.8-12.7-14-23.4-14-16.7 0-29.4 13.4-29.4 31.6s12.7 31.6 29.4 31.6c10.7 0 19.3-6.1 23.4-14l17.6 8.5c-6.9 12-19 23.7-41 23.7-28.1 0-50.5-20.2-50.5-49.8zM587.2 166.3l-7.5 8.9v29.6h-20.5v-96.3h20.5v43l34.1-43H639l-38.2 45.2 40.8 51.1h-25.3l-29.1-38.5zM680.7 165.4l-37.1-56.9H667l24 38.7 23.7-38.7H738l-36.8 56.9v39.4h-20.5v-39.4z"/></g><g fill="#FFF"><path d="m670.2 58.2-1.5.5-.7-.8-.2 1-.8-.9-1.8-.2-.1-.4.2-.1.2-.8-.9-.1-.7-1.7-.6.6-1.1-1.1-1.7-.5-1-2.8.3-.5-.7-.9-1.9-1-.6-2.3-.4-.8-2-1 .2-.7.4-.4.2-.8-1.5-1.5-2.1-3.4-1.6-1.3v-.9l.9-.2.3-.7-.3-1.6.8-.2.4-.4-.1-1.4.2-.5-.7-2.2.3-1.6-.9-2.2-1.6-1.1-.9-1.3-1.3-.5-1.9-.2-.8-.5-.8-1-.2-1.9-.6-1.2.2-1.2-.5-.9-.9-.1-1.6.9-1.7.2-1.1 1-1.5.9-.9 1.6-1.3.3-1.8-.5-.9.5-.5.5h-.5l-.5-.4-.2-.9-1.3-.8-2.5-.3-1.4-1-.9-.2-2.8.6-.4.6-.3.9-.4.5-.7.1-1-.6-1.9-.5-.6-1.5-1.4-.7-.6-1.2-1.7-.5-1.5-.7-2.8.6-1.1-.1-2.7-.8-1.5-.9-.3-2.3-.7-1.6-.9-1-.7-2.5-1.1-.8h-1.3l-.9-.4-.2-1.3-.6-1-1.4.1-.7.5-2.4.8-.9-.1-1.4-.5-2.3-2-1.4 1.3-.7.1h-.5l-1.8 1.5-.1.4.4.7 1 1 .3.8-.3 1-1 1v.7l.5.3 1.7.2.5.4.1.7-1.2 1.1.2 1.6-4.8.4-1.5.6-1.3.5-1.6 1.4-1.2.6h-1.4l-2-1.8-2 .3h-2.6l-.8.4-.2 1.1.9 4 .2.8-.5.9-1 .8-1.3 1.7-3.2.9-1 2.2-.3 1.7-.8 1.4-2 1.1-1.2-.5-.7-.1-.9.4-.4 1.3-1.8 2.2-.1 4.1-.5 1.2-.9.8-1.5.4-.7.2-.6 1-1.6-1.6-2.7-.3-1.9-.8-.7-.6-.5-.7-.1-2.6-1.4-1-.7-.7h-.7v1l1.3.5.3.3-.3.4-1.5.5-.4.5-1.4-.8h-.4l-.3.6 1 .9v.5l-.4.6-1.5.3-.4.1-.3 1-.1 1.2.4 1.6-.2.6-.5.1h-1.2l-.6.1-.5 2.3-.9.4-.6-.1-.1-.4.3-1.5-.3-.4h-.7l-1.2.6-.7-.1-1.5-2.9-.7-.5-1.1.2-1.2 1.2-1 .6-1.7.3-.8.2-.6.6-1.2 3.7-1 .8-.8-.2-.8-1.4-.5-.4-1.6-.4-1.4-.8-1.1-.8-2.4-1.5-2-.1-1.6.8-3-2.1-.7 1.8 1 1.2v.9l-.5.8-1.3.6-1-.3.1-2.3h-.9l-.5.1-.8-.1-2.2.8-1-.5-1.3-1.2-.7.1-.4.6v1.1l.8 1.3-.3 1.1-.6.3-.6.8-1.6-.9-.8-.1-1.1 2.6-1.8 1.2-.8 1.5v1.1l.7 1.7 2 2.7-.5 1.2-6.9 1.2-1.5 1.3-1.8-.5-1.5.7-1.3 3.8.3 1.4 1.5 1.9.9 1.8-.9 2.1-.7 1-.5.2-.8.1-1.3-.3-1.7-1.4-2.2-.9-1.6-.2-.2-.4-3.6-1.9-2.1-.5-1.8-.1-2.2 1.2-1.6 2.7-.9.8-.8 1-.1 1.4.7 1 .6.3.8.4v.9l-.8 3.2-1 .9-.2.4.2.9 1.2.5v.9l-.8.3-.8-.1-.6 1.3v.4l.9 1.6-.3.7-.7.8-.3 1.8-1 .4-1.2-.2-1.3-1.7-.6-.2-.6.1-.3.3-1.3 3.8v.4h2.2l15.8.1h24l.2-1.5-.1-1.6-.9-3.5 6.1.4.5.9h6.5l9-.2 7.2-.1 1.4.1 9.1-.1 7.9-.1 2.9.2 6.6.2 6.8.4 5.9.2 10.7.3 4.1-.2h.9l8.4.2 6.3.5h.3l16.1.3 7.7.1 2.1.1 7.4.3.6-.5.8-.8 3.6-1.6h2.2l1.7-.3.5-.6 2-.8 3.6-.9 2-.2.5-.4-.2-1 1.9-2.6.6-.4 3-.2 2.1-1 .6-1.4-.2-1.5 1.7-1.2 2.7-1 .1-1.1.4-.4-.4-.6.1-.7 4.6-3 .5-.2 4.5-1.9 1.5-.3 2-1.7 10.1-8.2zM440.6 94.5l-.4-.4-1.1-.2-.8.2-.4.6v.8l1.1.8h1.7l-.1-.2.3-.8z"/></g><path fill="#FFF" d="M738 195.8c0 5.1-4 9.1-9.2 9.1-5.1 0-9.2-4-9.2-9.1 0-5 4.1-8.9 9.2-8.9 5.2-.1 9.2 3.9 9.2 8.9zm-16.1 0c0 4 2.9 7.1 7 7.1 3.9 0 6.8-3.2 6.8-7.1 0-4-2.9-7.2-6.9-7.2-3.9 0-6.9 3.3-6.9 7.2zm5.5 4.7h-2.1v-8.9c.8-.2 2-.3 3.4-.3 1.7 0 2.5.3 3.1.7.5.4.9 1.1.9 2 0 1-.8 1.7-1.9 2.1v.1c.9.3 1.4 1 1.6 2.2.3 1.4.4 1.9.7 2.2H731c-.3-.3-.4-1.1-.7-2.2-.2-1-.7-1.4-1.9-1.4h-1v3.5zm.1-5.1h1c1.1 0 2.1-.4 2.1-1.3 0-.8-.6-1.4-1.9-1.4-.5 0-.9.1-1.1.1v2.6z"/></svg>